<svg xmlns="http://www.w3.org/2000/svg" viewBox="0 0 433.33 414.79"><defs><style>.cls-1{fill:#252a4b;}.cls-2{fill:#272c4c;}.cls-3{fill:#262b4c;}.cls-4{fill:#c1c5ce;}.cls-5{fill:#cdd3d9;}.cls-6{fill:#eed276;}.cls-7{fill:#7e5b65;}.cls-8{fill:#fffffe;}.cls-9{fill:#eaaa5a;}.cls-10{fill:#e9a95a;}.cls-11{fill:#edd276;}.cls-12{fill:#fefefd;}.cls-13{fill:#e9aa5a;}.cls-14{fill:#edd176;}.cls-15{fill:#fcfcfb;}.cls-16{fill:#fdfdfc;}.cls-17{fill:#e6a85a;}.cls-18{fill:#ecd176;}.cls-19{fill:#e7a95a;}.cls-20{fill:#eaab5d;}.cls-21{fill:#e8a95a;}.cls-22{fill:#e5a75a;}.cls-23{fill:#e7cd76;}.cls-24{fill:#e5cc77;}.cls-25{fill:#e8cd75;}.cls-26{fill:#e2a55a;}.cls-27{fill:#e9ab5f;}.cls-28{fill:#eaaa5c;}.cls-29{fill:#e4a75b;}.cls-30{fill:#e8aa5d;}.cls-31{fill:#e9aa5c;}.cls-32{fill:#f5f6f7;}.cls-33{fill:#e1a459;}.cls-34{fill:#e7ab5e;}.cls-35{fill:#3e3c4e;}.cls-36{fill:#e4a95f;}.cls-37{fill:#d19d5a;}.cls-38{fill:#d79d58;}.cls-39{fill:#f3f3ee;}.cls-40{fill:#eff2f3;}.cls-41{fill:#f8f1e7;}.cls-42{fill:#f0edeb;}.cls-43{fill:#d49e5f;}.cls-44{fill:#e2a55b;}.cls-45{fill:#dda460;}.cls-46{fill:#c69558;}.cls-47{fill:#daa25d;}.cls-48{fill:#ceccd4;}.cls-49{fill:#d29e61;}.cls-50{fill:#786070;}.cls-51{fill:#d0d4db;}.cls-52{fill:#eee9e4;}.cls-53{fill:#ba935d;}.cls-54{fill:#d6d3d9;}.cls-55{fill:#e8e8e1;}.cls-56{fill:#ced0d7;}.cls-57{fill:#f4e8d8;}.cls-58{fill:#dde0e5;}.cls-59{fill:#9c7955;}.cls-60{fill:#d2d5cc;}.cls-61{fill:#aa8458;}.cls-62{fill:#b79357;}.cls-63{fill:#c1ab6d;}.cls-64{fill:#ccd4d5;}.cls-65{fill:#a7b8c3;}.cls-66{fill:#bd8957;}.cls-67{fill:#f0f6f7;}.cls-68{fill:#e0d7d4;}.cls-69{fill:#ecb978;}.cls-70{fill:#b4bfc9;}.cls-71{fill:#dfcba7;}.cls-72{fill:#c39357;}.cls-73{fill:#cfd3d9;}.cls-74{fill:#dbd1d3;}.cls-75{fill:#e3d7c8;}.cls-76{fill:#e5a759;}.cls-77{fill:#aa8356;}.cls-78{fill:#a4a0af;}.cls-79{fill:#736d85;}.cls-80{fill:#bfced5;}.cls-81{fill:#505973;}.cls-82{fill:#d3cbc4;}.cls-83{fill:#b6c1cc;}.cls-84{fill:#5f647c;}.cls-85{fill:#6f7389;}.cls-86{fill:#a57b55;}.cls-87{fill:#d0cfc7;}.cls-88{fill:#d5c3b4;}.cls-89{fill:#272c4d;}.cls-90{fill:#282c4d;}.cls-91{fill:#282d4d;}.cls-92{fill:#292e4e;}.cls-93{fill:#292d4e;}.cls-94{fill:#2a2f4f;}.cls-95{fill:#2a2e4f;}.cls-96{fill:#2a2e4e;}.cls-97{fill:#292e4f;}.cls-98{fill:#2d3050;}.cls-99{fill:#292d4d;}.cls-100{fill:#2c3050;}.cls-101{fill:#2b2e4e;}.cls-102{fill:#2b2f4f;}.cls-103{fill:#282d4e;}.cls-104{fill:#2b2e4f;}.cls-105{fill:#725b6a;}.cls-106{fill:#a07562;}.cls-107{fill:#f3e3af;}.cls-108{fill:#eaac5e;}.cls-109{fill:#e9ab5d;}.cls-110{fill:#2b2f50;}.cls-111{fill:#e9ab5e;}.cls-112{fill:#e3e2e3;}.cls-113{fill:#d8cfc3;}.cls-114{fill:#e4d1d8;}.cls-115{fill:#bcc5cd;}.cls-116{fill:#f4e9d5;}.cls-117{fill:#efc999;}.cls-118{fill:#f0d0a5;}.cls-119{fill:#fdfdfd;}.cls-120{fill:#f3f4f5;}.cls-121{fill:#eff0f1;}.cls-122{fill:#e7eaec;}.cls-123{fill:#d4d5db;}.cls-124{fill:#dbdce0;}.cls-125{fill:#dee0e4;}.cls-126{fill:#dde0e4;}.cls-127{fill:#c0c5ce;}.cls-128{fill:#9ca6b4;}.cls-129{fill:#9ea6b5;}.cls-130{fill:#949cad;}.cls-131{fill:#e3e4e8;}.cls-132{fill:#d2d5db;}.cls-133{fill:#95a0b0;}.cls-134{fill:#c3c8d0;}.cls-135{fill:#b3b7c2;}.cls-136{fill:#cdd0d7;}.cls-137{fill:#a2a9b7;}.cls-138{fill:#9fa3b2;}.cls-139{fill:#aab2be;}.cls-140{fill:#b1bec7;}.cls-141{fill:#aeb5c0;}.cls-142{fill:#b9b7c2;}.cls-143{fill:#636d87;}.cls-144{fill:#b4b7c2;}.cls-145{fill:#fcfdfc;}</style></defs><g id="Calque_2" data-name="Calque 2"><g id="Calque_1-2" data-name="Calque 1"><path class="cls-1" d="M432.17,83.42a8.52,8.52,0,0,0-5.6-2.58,4.65,4.65,0,0,0-4.31,2.32,1.11,1.11,0,0,1-1.78.3c-.32-.22-.68-.37-1-.57-9.55-5.57-19.3-10.79-29-16.16q-37.28-20.75-75.83-39a267,267,0,0,0-30.08-12.14,43.3,43.3,0,0,0-14.64-2.68c-2.73.06-3.78.82-4.72,3.32a12.47,12.47,0,0,1-.63,1.5,151.71,151.71,0,0,0-6.77,15.13C255,39.87,252,46.81,249,53.76c-.74,1.73-.81,1.76-2.6,1.24-3.58-1.06-7.19-2.07-10.7-3.31C223.18,47.24,210.64,42.8,197.86,39c-21.71-6.46-43.46-12.79-65.46-18.23-14.6-3.6-29.38-6.34-44-9.95-13.92-3.43-28-5.9-42.14-8.44C41.53,1.52,36.81.52,32,.06c-2.54-.25-3.33.26-4.33,2.51a4.3,4.3,0,0,0,.27,3.61,19.63,19.63,0,0,0,3.36,5c11.25,13.15,22.79,26,35.63,37.68,5,4.51,9.81,9.13,14.5,13.92.72.74,1.66,1.37,1.9,2.58-5,1.08-9.94,1.68-14.87,2.36C62,68.64,55.6,69.29,49.2,70.21,35.86,72.13,22.7,75.1,9.42,77.35A17.87,17.87,0,0,0,2.72,80C-1,82.42-.9,85.11,3,87.11a138.15,138.15,0,0,0,14,6.46c8.37,3.16,16.7,6.44,25,9.77,18.07,7.24,36.26,14.15,54.35,21.35,10.56,4.2,21.13,8.38,31.82,12.25,14.63,5.31,29.26,10.65,43.91,15.91,11,3.94,21.67,8.75,32.93,11.92.33.1.76.15,1,.74a6.58,6.58,0,0,0-1.84,7.36c.81,2.44,2.67,3.4,5.06,3.61.67.06,1.59-.07.9,1.1a6.74,6.74,0,0,0-.4,6.58,5.19,5.19,0,0,0,2,2A7.23,7.23,0,0,0,216,187c1.47-.06,2.2.46,2.39,2.1.38,3.45,3.16,5.36,6.6,4.91a5.48,5.48,0,0,0,3.29-2c.32-.33.67-.74,1.18-.6.71.19.59.84.56,1.36-.28,4.59,1,9,1.61,13.46.17.91.94,1.39,1.46,2.05,3,3.78,6.92,6.48,10.49,9.61a81.62,81.62,0,0,0,19.69,12.87c4.15,1.91,8.24,4.14,12.89,4.64a8.4,8.4,0,0,1,4.39,1.79c.79.6.84,1.15,0,1.53-.69.3-1.42.59-1.55,1.27-.49,2.37-2.2,3.88-3.59,5.66a15,15,0,0,0-2.49,5.76c-1.38,5.67-2.87,11.32-4,17-1.49,7.56-3,15.12-4.26,22.72-1.4,8.36-3,16.7-5.21,24.9a3.59,3.59,0,0,1-2.26,2.66A171.36,171.36,0,0,1,241,325.32c-1.77.56-3.78,1.12-4.23,3.5-.14.69-1,.85-1.57.62-1.34-.5-2.42-.57-3,1-.23.58-.91.55-1.41.71-1.54.52-3.66-1.1-4.69,1.27-1.77.6-3.55,1.18-5.31,1.8-2.57.91-5.16,1.77-7.67,2.81a90.1,90.1,0,0,1-11.9,4.14,4.6,4.6,0,0,0-3.36,2.87,54.14,54.14,0,0,0-3,10.79c-2.07,10-2.45,20.25-4,30.33a3.76,3.76,0,0,0,0,1.16,2,2,0,0,0,2.92,1.71,6.86,6.86,0,0,0,2.12-1.42,29.23,29.23,0,0,0,4-4.24A127.51,127.51,0,0,1,212.56,369c6.53-6.22,14-11.21,21.59-15.93.79-.49,1.45-1.09,2.21.26.52.91,1.7.64,2.29-.28a3.65,3.65,0,0,0,.46-1.8,1.92,1.92,0,0,1,1.78-1.92,2,2,0,0,1,.63,1.36A87.21,87.21,0,0,0,244.66,361a2.2,2.2,0,0,0,3.68,1.08,10.93,10.93,0,0,0,1.22-1.4,42,42,0,0,1,11.85-9.72,159.22,159.22,0,0,0,15.13-9.71,6.76,6.76,0,0,0,2.95-4.57c1-5.28,2.1-10.53,3.19-15.79.41-2,.9-4.05,2.51-5.67a7.65,7.65,0,0,1,1.26,2.92c1.4,4.86,2.34,9.84,3.53,14.75q3.34,13.86,6,27.85c.5,2.59.73,5.28,1.75,7.71a4.15,4.15,0,0,1-.1,3.66c-1.9,4.27-3.73,8.57-5.56,12.86-.95,2.24-.76,3.09.93,4.79a7.65,7.65,0,0,0,4.28,2.21c3.45.59,4.61,0,6-3.16a39.64,39.64,0,0,1,2.49-5.42,1.12,1.12,0,0,1,.59.81q3.35,11.79,6.67,23.58a19.45,19.45,0,0,0,1.83,4.54c1.38,2.36,3.14,3,5.73,2.07a28.79,28.79,0,0,0,4-1.9c3.39-1.92,6.62-4.1,9.81-6.35,6.82-4.81,13-10.41,19.85-15.21a4.16,4.16,0,0,0,.71-.61c1.39-1.53,1-3.15-1-3.78a8.85,8.85,0,0,0-2.29-.38,37.36,37.36,0,0,0-6.77.21c-3,.35-6.07.31-9.11.39a3.82,3.82,0,0,1-3.8-2.13q-2.58-4.71-5.2-9.4c-.43-.78-.55-1.23.43-1.83s.9-1.94-.31-2.54a5.57,5.57,0,0,0-1.56-.44,1.82,1.82,0,0,1-1.62-2c1-.16,1.91-.31,2.82-.44,1.78-.27,3.57-.41,5.31-.82,2.09-.49,2.56-2.4.93-3.81a18.21,18.21,0,0,1-3.7-4.77c-2.6-4.47-4.05-9.42-6.05-14.14a2.57,2.57,0,0,1,.26-2.22c1.85-4.29,3.84-8.52,5.5-12.88a7.13,7.13,0,0,1,5-4.84c7.05-2.23,12.2-11.36,8.6-18.75-1.47-3-1.46-5.52.17-8.24a3.25,3.25,0,0,0,.38-.85c.41-1.65,1.51-2.21,3.15-2.51a15.14,15.14,0,0,0,12.38-16.26,16.16,16.16,0,0,0-2.66-7.4,3,3,0,0,1-.24-3.21q14.42-33.33,28.75-66.69Q407,148,429.67,95.46c1.11-2.58,2.19-5.16,3.28-7.74A3.62,3.62,0,0,0,432.17,83.42ZM314.93,317.89a.93.93,0,0,1,.54.9A.72.72,0,0,1,314.93,317.89Zm16.9-25.21c-1,2.35-1,2.35-3.45,2.35a13.37,13.37,0,0,0-6.52,1.45,2.15,2.15,0,0,1-2.55-.17c-2.44-1.64-5.06-3-7.23-5.06,0-.76.42-.8,1-.47,3.82,1.66,7.73,2.78,12,2.32a31.65,31.65,0,0,0,6.91-1.73C332.38,291.9,332,292.29,331.83,292.68Zm28.65-66.5Q357.73,232.62,355,239c-3.33,7.71-6.7,15.4-9.95,23.15a2.5,2.5,0,0,1-2.72,1.84c-5.8,0-11.77,4.31-13.3,10-.66,2.43-2.15,3.11-4.16,3.68-4.22,1.19-7.6-.51-10.77-3-.79-.62-1.49-1.37-2.26-2-1.06-.89-1.72-1.8-1.05-3.32a3.48,3.48,0,0,0-.18-2.75c-.85-1.92-1.72-3.83-2.75-5.66a2.14,2.14,0,0,0-3.35-.9c-1.33.79-2,.39-2.93-.61-1.9-2.16-3.88-4.26-5.88-6.33-.73-.75-.73-1.28-.15-2.19,1.12-1.76,2.65-3.25,3.48-5.21s.79-2-1-3.5a.73.73,0,0,1,0-1c.78-.46,1.14-1.3,1.76-1.9.59-.33.79.26,1.14.49,1.92.92,2.64.77,3.76-.75a1.88,1.88,0,0,0,.37-.59c.54-2.62,2.59-3.06,4.78-3.57a99.35,99.35,0,0,0,13.35-4.2c3-1.19,6.13-2.25,9.2-3.38a36.41,36.41,0,0,0,14.48-9.54c.63-.69,1.13-.94,1.91-.3,2.67,2.23,6,3.32,9,4.92.55.29,1.14.52,1.68.81C361.08,224.06,361.22,224.44,360.48,226.18Z"/><path class="cls-2" d="M213.43,217.87c.14-1.07.27-2.15.43-3.23.81-5.22,1.65-10.43,2.43-15.65a4.4,4.4,0,0,1,2.62-3.53c2.9-1.46,6.92.42,7.38,3.6a10.44,10.44,0,0,1,.05,2.56,131.88,131.88,0,0,0-.5,17.44c.13,4-2,4.87-4.92,4.83a13.22,13.22,0,0,1-5.37-1.44C213.61,221.54,213.42,219.75,213.43,217.87Z"/><path class="cls-3" d="M213.37,188c2.17,1.34,2.26,3.39,1.8,5.56-.35,1.59-.95,3.13-1.29,4.72-1,4.56-1.87,9.14-2.77,13.71-.56,2.88-1.81,3.87-4.68,3.57a13.23,13.23,0,0,1-6.13-2.68,3.23,3.23,0,0,1-1.21-3.13,13.45,13.45,0,0,1,.61-2.95c1.84-5.37,3.78-10.71,5.58-16.08a5.09,5.09,0,0,1,3.47-3.67C210.44,186.65,212.09,186.38,213.37,188Z"/><path class="cls-3" d="M207.25,177.75a6.28,6.28,0,0,1-1,5.12,166.46,166.46,0,0,0-8.58,16.3c-1.19,2.46-2.75,3-5.36,2a13.6,13.6,0,0,1-5.22-4.19,3,3,0,0,1-.48-2.88,9.79,9.79,0,0,1,1.5-3.14c3.12-4.55,6.35-9,9.36-13.67a5.71,5.71,0,0,1,6-2.87A5.42,5.42,0,0,1,207.25,177.75Z"/><path class="cls-2" d="M211.39,185.66c1.72.37,3.35,1.11,5.2.93,1.15-.11,1.84.7,1.95,1.88a5.53,5.53,0,0,0,1,3,5.3,5.3,0,0,0,8.21.56c.22-.22.43-.45.66-.66.41-.36.82-.8,1.42-.44s.41.81.39,1.26c-.23,4,.57,7.84,1.32,11.71a12.81,12.81,0,0,1,.06,2.32,53.44,53.44,0,0,1-2-11.85c0-.82-.1-1.65-.16-2.53-.93.18-1.23.88-1.75,1.28a6,6,0,0,1-9.67-3.45c-.18-.8.07-1.77-.88-2.27a10.13,10.13,0,0,0-3.43-.17C212.61,187.24,211.62,187,211.39,185.66Z"/><path class="cls-4" d="M207.25,177.75l-3.75-3.29c1.25-.11.41-1.06.63-1.59,1,.93,1.68,2.18,3,2.76a6.27,6.27,0,0,0,2.67.59c.34,0,.85-.15,1,.33s-.28.81-.7,1c-.09-.36-.14-.77-.64-.8a6.89,6.89,0,0,1-2.2-.47Z"/><path class="cls-5" d="M211.39,185.66c1.06,1.2,2.48,1.36,4,1.39.64,0,1.38-.42,1.86.38-1.26.33-2.67-.39-3.84.55-1.55-.25-2.93-1.36-4.62-.95.41-.9,1.4-.26,2-.73-.13-.83-1.26-1.16-1.05-2.14C210.39,184.51,210.58,185.43,211.39,185.66Z"/><path class="cls-6" d="M223.68,144.43a14.56,14.56,0,0,1,0,2.09,1.77,1.77,0,0,1-1.48,1.59c-5,.93-7.84,4.45-10,8.67a28.15,28.15,0,0,0-1.43,3.95c-.72,2.2-.71,2.23-2.8,1.51-6.18-2.13-12.4-4.15-18.51-6.52-19.74-7.69-39.74-14.67-59.65-21.91C119.32,130,109,126,98.61,121.82,80.45,114.58,62.13,107.75,44,100.39,32.48,95.7,20.69,91.62,9.3,86.57c-1.84-.82-3.79-1.48-5.21-3.19.61-1,1.73-1.15,2.69-1.54,3-1.23,6.17-1.6,9.31-2.19q12.39-2.34,24.79-4.58c8.44-1.51,16.86-3.22,25.41-3.78,6.47-.43,12.79-1.78,19.22-2.42,1.74-.18,2.77-2.74,1.71-4.46a20.57,20.57,0,0,0-2.59-3.3A76.39,76.39,0,0,0,76.93,54a49.18,49.18,0,0,1-4.73-4.84c-3-3.16-6.27-6-9.44-9C55.49,33.29,48.73,26,42.1,18.51c-3.26-3.67-6.34-7.5-9.49-11.26A8.25,8.25,0,0,1,31,4.68c-.18-.51,0-.95.62-.93a18.26,18.26,0,0,1,2.56.18C45.34,5.76,56.42,8,67.52,10c12.41,2.3,24.58,5.69,36.94,8.19,17.72,3.59,35.23,8,52.68,12.71,19,5.09,37.87,10.89,56.65,16.84,6.6,2.1,13.06,4.64,19.6,6.94A261.41,261.41,0,0,0,269.08,64a44.06,44.06,0,0,0,13,1,.93.93,0,0,1,1,.39l-3.52,6.93c-1.65,3.25-3.79,6.25-5.17,9.66-.25.63-.76.68-1.29.82q-2.36.66-4.71,1.36c-1.18.36-2.33,1.08-3.07-.76-.28-.7-1.22-.72-1.79-.08a3.28,3.28,0,0,1-2.31,1.38c-1.09.22-1.06-.72-1.24-1.29a29.15,29.15,0,0,0-2.25-5.11c-2.89-5.45-7.53-8.1-13.07-7.5-5,.53-9.9,4.83-11.41,10.1-.71,2.46-1.38,4.94-.35,7.53.94,2.33,2,2.87,4.31,1.86,1.14-.51,2.2-1.18,3.37-1.6A5.76,5.76,0,0,1,248,93.51h0c-.24.28-.71.18-.89.55-.93.7-1.87,1.38-2.78,2.09s-1.7,1.55-3,.41c-.61-.53-1.59.11-1.67,1a9.07,9.07,0,0,0,.23,1.94c-1.72-.16-2.75.36-2.4,2.33.09.52-.53.92-.9,1.31a19.94,19.94,0,0,0-3.35,4.13c-.42.77-.92,1.46-2.22,1s-2.27.64-1.5,2a2.65,2.65,0,0,1-.13,3c-1,2-1.9,4.07-2.84,6.11-1.41-.1-1.28-1.34-1.56-2.21-.63-1.92-1-4.21-3.42-4.53-2.63-.34-3.78,1.87-4.72,3.82-3.75,7.75-2.86,15.17,1.79,22.28C220.07,140.81,222.09,142.43,223.68,144.43Z"/><path class="cls-7" d="M332.16,143.09a166.41,166.41,0,0,1-19.05-1.32c-6.08-.72-12.18-1.33-18.19-2.5-5.79-1.13-11.56-2.34-17.23-4-2.08-.62-4.18-1.19-6.27-1.78s-2.67-.4-3.42,1.84c-2,6.05-6.12,10.59-10.87,14.59a19,19,0,0,1-7.6,3.44c-.9.25-1.78.55-2.66.85a5.76,5.76,0,0,0-3.66,3.68,64.26,64.26,0,0,0-2.09,6.66,5.37,5.37,0,0,1-5.36,4.24h-.23c-3.18,0-3.41-.18-3.45-3.38s-.05-6.39,0-9.58c.08-2.78-.8-4.89-3.56-5.89-1.65-.59-2.13-1.76-2.09-3.45.05-2.49.18-5,.47-7.44.05-.38,0-.83.34-1.08,1-.8.86-1.64.32-2.65-.32-.62-.51-1.36.79-1.22,1.08.11,1.28-.67,1-1.57a1.76,1.76,0,0,0-.41-.83c-1.53-1.39-1.33-3.06-1.08-4.88a38.63,38.63,0,0,1,3.05-10.71c.46-1,.78-2.31,2.48-1.29.6.36,1.39-.67.89-1.33-1.23-1.64-.17-2.79.62-4a46.27,46.27,0,0,1,3-3.82c.71-.85,1.46-1.47,2.43-.2.29.38.88.79,1.42.26a1.16,1.16,0,0,0,.1-1.51c-.07-.13-.13-.28-.19-.42-.26-.58-.55-1.27.05-1.71s1.11.19,1.59.57a3.26,3.26,0,0,0,.77.52,1,1,0,0,0,1.23-.36c.27-.38.09-.71-.12-1.07-1.15-1.93-1.16-2.14.49-3.29a86.57,86.57,0,0,1,12.19-7.33c.49-.23,1-.35,1.52-.59A1,1,0,0,1,261,91c.27.48.52,1,1.24.72a1.15,1.15,0,0,0,.63-1.56c-.28-.94.29-1.25,1-1.55.38-.17.78-.25,1.07.09.95,1.14,1.68.85,2.28-.32a3.09,3.09,0,0,1,2.06-1.4,52.17,52.17,0,0,1,10.15-2.53c.92-.11,1.49-.11,1.89.77a2.53,2.53,0,0,0,.57.74.92.92,0,0,0,1,.35.8.8,0,0,0,.6-.89c-.53-1.76.64-1.6,1.76-1.81,4.51-.82,9,.43,13.48.08a1.87,1.87,0,0,1,2.1,1.48c.17.64.43,1.24,1.19,1.21s.7-.7.81-1.22.47-1,1.12-1,1,.61,1.1,1.29a9.34,9.34,0,0,0,.22,1.6.9.9,0,0,0,1.09.66c.46-.09.57-.48.61-.88,0-.23,0-.47,0-.7.22-1.43.39-1.53,1.81-1.17,1.8.45,3.6.92,5.42,1.34.91.21,1.56.54,1.6,1.65,0,.86.54,1.45,1.34.66,1-1,2-.78,3.22-.42a31.23,31.23,0,0,1,7.39,3.08,1.07,1.07,0,0,1-.22,1c-.32.45-.69,1-.11,1.43a1.22,1.22,0,0,0,1.53,0c1.47-1.67,2.78-.55,4.13.11a34.34,34.34,0,0,1,6.79,4.5c.8.67.86,1.18.19,1.91s-1.32,1.44-.53,2.21,1.75.29,2.45-.45c.84-.9,1.55-.72,2.39,0,1.55,1.44,2.79,3.14,4.19,4.7a1.12,1.12,0,0,1,.27,1.08.82.82,0,0,0,.42,1c2.59,1,3.57,3.56,5,5.6s2.34,4.21,3.54,6.3c.74,1.31.87,2.46-.48,3.48a4,4,0,0,0-.82,1.11.93.93,0,0,0,.2,1.26,1.06,1.06,0,0,0,1.26.25c.59-.23.87-.91,1.53-1,1.23,1.54,1.23,1.54.06,2.53a5.36,5.36,0,0,0-.9.72,1.31,1.31,0,0,0-.08,1.54c.34.56.81.53,1.42.35,1.63-.49,1.65-.46,2.18,1.12.32,1,.63,1.92.89,2.89s.79,2.14-.58,3.09a1,1,0,0,0,.63,1.88,1.33,1.33,0,0,1,1.32,1.54c.05,4.2,0,8.41,0,12.61a2.16,2.16,0,0,1-1.5,2.11c-1.73.77-1.74,1.31-.11,2.49a1.4,1.4,0,0,1,.65,1.58,38.94,38.94,0,0,1-2.45,8.25c-.57,1.24-1,1.36-2.14.6a12.7,12.7,0,0,1-3.78-3.77c-3.34-5.12-5.42-10.65-5.18-16.88,0-.47,0-.93,0-1.4,0-2.32-.87-3.44-3.16-3.24-1.11.1-2.34.39-3.4-.34-2.44-.67-4.92-.13-7.37-.31C334.77,143.2,333.45,143.51,332.16,143.09Z"/><path class="cls-6" d="M355.16,110.34c-.52-.68-1-1.35-1.56-2a1.35,1.35,0,0,1-.16-1.64c.66-1.47,0-2.33-1.5-2.05a1.8,1.8,0,0,1-2-.75c-1.12-1.28-2.28-2.54-3.42-3.8-.63-.68-1.19-1.24-.87-2.41A1.23,1.23,0,0,0,344,96.15a2.15,2.15,0,0,1-2.45-.74c-.9-1.11-.33-2.26,0-3.35a178.18,178.18,0,0,0,4.33-19.37,12.71,12.71,0,0,0-.17-6.25A8.17,8.17,0,0,0,339,60.66c-3.28-.47-5.72,1.28-7.56,3.78-2.6,3.5-3.83,7.64-5.15,11.71-.84,2.6-1.75,5.17-2.47,7.8-.32,1.2-.79,2.3-2.42,1.68-.64,0-1.2-.15-1.4-.87-.34-1.28-1.25-1.33-2.3-1.08-1.27.65-1.71-.07-1.88-1.15a12.34,12.34,0,0,1,0-3.27A36.11,36.11,0,0,0,313,61,23.59,23.59,0,0,0,298.9,47.82a17.45,17.45,0,0,0-8.08-.75c-.84.09-1.7.36-2.45-.31-4.1-7.32-9.53-13.65-14.84-20.08-1.09-1.33-2.13-2.68-3.14-4.07a8.94,8.94,0,0,1-1.29-2.21c-1.18-3.24-.63-4.23,2.82-3.9,6.36.6,12.29,2.74,18.23,4.88,13.66,4.93,26.67,11.3,39.69,17.66,13.44,6.57,26.74,13.42,39.94,20.44,6.54,3.47,12.9,7.28,19.47,10.68,10,5.18,19.68,11.09,29.72,16.28,1,.54,1.33,1,.82,2.15Q415,99.5,410.3,110.44c-3,7-6,14-9,21.05q-6.72,15.64-13.47,31.3c-3.08,7.14-6.26,14.25-9.23,21.44-1.31,3.15-2.53,6.34-4.13,9.36-.55.33-.42,1-.79,1.45,0,.26-.33.38-.3.66a2,2,0,0,1,0,.25c-1.07,3.25-2.64,6.29-4,9.43q-3,7.08-6.06,14.13c-.71,1.65-.77,1.69-2.35.84-3.42-1.84-7-3.35-10.18-5.67-.63-.47-1-.82-.67-1.69.64-1.75,1.19-3.53,1.7-5.32a2.38,2.38,0,0,1,2.07-1.86c10.1-2.14,15.92-8.67,18.19-18.41A22.44,22.44,0,0,0,370.48,173c-.29-.64-.57-1.27-.85-1.91-.74-1.15-.09-2.13.47-3,5.81-9.33,11.18-18.91,16.44-28.54,6.2-11.35,12.24-22.78,16.94-34.86a41.34,41.34,0,0,0,1.26-4,5.83,5.83,0,0,0-2.51-6.51c-2.09-1.39-4.15-1.24-6.43.62a24.58,24.58,0,0,0-4.46,5.38c-6.38,9.34-11.75,19.28-17.2,29.17-1.7,3.07-3.44,6.11-5.11,9.19-.36.65-.68,1.47-1.71,1.27a28.76,28.76,0,0,0-1.05-4.54c-.67-2.05-1.26-4.12-1.89-6.18-.2-.64.29-1,.56-1.41.83-1.37.79-1.53-.45-2.94-1.19,0-1.51-.59-1.69-1.84a30,30,0,0,0-1.86-7.58C359.82,112.66,357.61,111.39,355.16,110.34Z"/><path class="cls-8" d="M307.43,232.24A23.24,23.24,0,0,0,307,230a1.57,1.57,0,0,0-1.91-1.3A1.42,1.42,0,0,0,304,230.4a4.27,4.27,0,0,1-.19,2.07.91.91,0,0,1-1.13.58c-.5-.13-.34-.62-.3-1,.11-1,.28-2,.36-3a6.44,6.44,0,0,0-.08-1.86c-.18-.9-.7-1.61-1.75-1.51a1.48,1.48,0,0,0-1.41,1.79,14.46,14.46,0,0,1-.46,4.4c-.47,1.93-.51,1.94-2.82,1.69.41-1.65.82-3.29,1.22-4.94a4.61,4.61,0,0,0,.19-1.15,1.57,1.57,0,0,0-1.42-1.6,1.52,1.52,0,0,0-1.82,1.4,22.9,22.9,0,0,1-1.74,5.79,1.56,1.56,0,0,1-2.32,1,10.17,10.17,0,0,1,1-2.49,11.55,11.55,0,0,0,1-3.11,1.5,1.5,0,0,0-1.17-1.77,1.41,1.41,0,0,0-1.82,1,16.87,16.87,0,0,1-1.3,3.24c-.46.82-1,1.61-1.46,2.4-.27.42-.68.73-1.16.42s-.05-.67.06-1a13.93,13.93,0,0,0,.66-2,1.53,1.53,0,0,0-2.92-.88c-.38.77-.74,1.54-1.11,2.31-.42.92-1,1.08-2.07.94-6.06-.78-11.5-3.27-16.87-5.94a87,87,0,0,1-20.08-14c-2.58-2.37-5.37-4.51-7.66-7.2a3.52,3.52,0,0,1-1-2c-.07-.86-.25-1.7-.37-2.54a147,147,0,0,1-1.57-27.24c0-.62,0-1.25,0-2,.84-.5,1.85-.07,2.82-.09,2.75-.07,5.33-.52,6.89-3.12A15.1,15.1,0,0,0,243.9,165c.5-2,1.21-3.86,1.78-5.8a3.75,3.75,0,0,1,2.9-2.73c1.44-.38,2.85-.83,4.25-1.29a21.12,21.12,0,0,0,8.28-5.1,34.4,34.4,0,0,0,8.8-12.79c.54-1.49.6-1.47,2.22-1,4.71,1.37,9.39,2.85,14.18,3.93,2.51.56,5,1.18,7.49,1.79a74.63,74.63,0,0,0,14.3,2.08c5,.24,10.13.61,15.12,1.32,7.2,1,14.43,1.13,21.65,1.48.47,0,.93,0,1.4,0,.67,0,1,.28,1,1,0,.47-.06.93-.07,1.4A29.37,29.37,0,0,0,353.33,168a12,12,0,0,0,5.12,4.31c1.12.42.92,1,.67,1.77q-2,6.58-4,13.19c-1.8,6-3.42,12.14-5.67,18-1.11,2.89-2,5.89-3.85,8.47a26.36,26.36,0,0,1-10.3,8.53,154.71,154.71,0,0,1-25.16,9.3C309.32,231.79,308.49,232,307.43,232.24Z"/><path class="cls-9" d="M367.32,139.81c.8-.35,1-1.16,1.37-1.82,4.32-7.73,8.5-15.53,12.94-23.19,2.92-5,5.87-10,9.15-14.86,1-1.54,2.22-3,3.36-4.46a8.37,8.37,0,0,1,2.72-2.16,5.92,5.92,0,0,1,8,2.87,6.63,6.63,0,0,1,.38,5,105.69,105.69,0,0,1-6.2,15.29q-3.93,8.34-8.25,16.49-5.16,9.65-10.63,19.14c-3.19,5.51-6.25,11.09-9.68,16.45a4.22,4.22,0,0,0-.88,2.61,13.59,13.59,0,0,0-4.23-3.22,1,1,0,0,1-.72-1.44c.67-2.63,1.32-5.26,1.94-7.91.22-1,1-1.3,1.72-1.77,1.79-1.21,1.73-2-.28-2.94a1,1,0,0,1-.69-1c0-.7,0-1.4,0-2.1A70.83,70.83,0,0,0,367.32,139.81Z"/><path class="cls-8" d="M428.54,89.22q-38.19,88.62-76.4,177.33a36.23,36.23,0,0,0-4.45-1.63c.55-1.36,1-2.57,1.53-3.76L391.55,163q15.51-36,31-72l.67-1.5c.89-2,.9-2,2.86-1.22A9.08,9.08,0,0,1,428.54,89.22Z"/><path class="cls-9" d="M265.91,22.54c4.88,7.11,10.79,13,15.52,19.91,2.35,3.41,4.55,6.88,5.66,10.92.42,1.57.88,3.14,0,4.76a6.52,6.52,0,0,1-4.66,3.16,23.61,23.61,0,0,1-9.51-.23c-3.74-.67-7.43-1.73-11.19-2.24-3.34-.45-6.44-1.65-10-2.35C256.61,45.16,261.22,33.93,265.91,22.54Z"/><path class="cls-9" d="M288.37,46.76c1.56,0,3.05-.47,4.62-.5,5.64-.1,10.22,2.3,14.34,5.81,4.78,4.06,7.05,9.53,8.48,15.45.66,2.73.54,5.54.9,8.3.28,2.14-.59,4.29-.42,6.49.07,1,.35,1.47,1.37,1.37-.61.94-1.54.63-2.33.48-2.28-.45-4.55-1-6.83-1.48-.9-.2-1.59-.58-1.56-1.68a2.44,2.44,0,0,0-.28-1.11,1.19,1.19,0,0,0-1.09-.74,1.23,1.23,0,0,0-1.08.77,4.28,4.28,0,0,0-.17.43c-.22.5.2,1.39-.77,1.43s-1-.77-1.12-1.45c0-.16,0-.31-.07-.46a1.27,1.27,0,0,0-1.24-1.18,1.09,1.09,0,0,0-1.15,1c-.11,1.73-1.13,1.59-2.43,1.47a110.2,110.2,0,0,0-14-.23c.3-1.44,1.51-1.05,2.4-1.08,2.47-.1,4.95,0,7.42,0,1.55,0,2-.56,1.69-2.13-1-4.61-4-6.94-8.83-6.7-.62,0-1.24.16-1.74-.37A45,45,0,0,1,289,61.7a10,10,0,0,0,1.16-9.91C289.5,50.14,289,48.43,288.37,46.76Z"/><path class="cls-9" d="M321.36,85.63A1.53,1.53,0,0,0,323,84.39c.82-2.83,1.72-5.64,2.63-8.45,1.31-4.06,2.64-8.11,5-11.71a10.89,10.89,0,0,1,4.42-3.69c4-1.95,8.45.76,10.27,3.64,1.73,2.72,1.57,5.66,1.13,8.57a174.54,174.54,0,0,1-4.75,20.81,7.29,7.29,0,0,0-.2,1.85,2.39,2.39,0,0,1-1.66-.74,46.18,46.18,0,0,0-5.72-3.55c-.91-.52-2-.78-2.26-2.11a.86.86,0,0,0-1.34-.46c-1,.65-1.74.18-2.6-.19C325.8,87.42,323.58,86.53,321.36,85.63Z"/><path class="cls-8" d="M340.17,294.28c-1.19,2.8-2.33,5.5-3.5,8.2q-18.09,42-36.2,84c-.07.14-.11.29-.18.43-.88,2-1.92,2.37-3.77,1.33-1.28-.73-1.47-1.23-.88-2.63q2.64-6.22,5.33-12.44l33.78-78.45c.16-.36.34-.7.47-1.07.33-1,.87-1.09,1.77-.63S339,293.83,340.17,294.28Z"/><path class="cls-8" d="M345,290.65a11.65,11.65,0,0,1-9.28-2.15c-1.68-1.22-3.16-1.26-5.14-.27a16,16,0,0,1-11.41,1,29.94,29.94,0,0,1-15-9.44c-.79-.89-.87-1.46.08-2.27,1.29-1.11,2.46-2.35,3.74-3.59a75.12,75.12,0,0,0,7.14,5.77,9.89,9.89,0,0,0,5.47,1.75c3.34.13,6.45-.89,9.57-1.91a1.83,1.83,0,0,0,1.27-1.77,11.46,11.46,0,0,1,1.72-4.8,10.73,10.73,0,0,1,8.69-5.52c.94,1.8,2.36,3.32,3.19,5.2a3,3,0,0,1,.23.59,9.13,9.13,0,0,0,.27.89,11.33,11.33,0,0,1,1.59,3.35,5,5,0,0,1,.28,1.21,6.65,6.65,0,0,1-.06,1.26.6.6,0,0,1-.56.23,1.53,1.53,0,0,1-.5-.41,7.16,7.16,0,0,1-.53-.82c-.39-.54-.67-1.53-1.49-1.11s-.17,1.26.06,1.85a29.92,29.92,0,0,1,1.72,8.36A2.44,2.44,0,0,1,345,290.65Z"/><path class="cls-9" d="M248,93.51c-.93-1.93-2.07-3.59-4.28-4.31a4,4,0,0,0-3.35.16c-1.23.66-2.48,1.31-3.75,1.88A2.51,2.51,0,0,1,233,90a8.48,8.48,0,0,1-1-6.24A24,24,0,0,1,233.77,78a14.86,14.86,0,0,1,8.39-7.28,12.87,12.87,0,0,1,14.62,4.84,23.33,23.33,0,0,1,3.87,8.14,1.42,1.42,0,0,0,.57,1c-1.15.37-2.18.82-2,2.35a1.21,1.21,0,0,1-.88,1.24C254.66,89.59,251.51,91.89,248,93.51Z"/><path class="cls-8" d="M281,257a4.5,4.5,0,0,0,1.46,3.5c2.47,2.88,5.75,4.94,8,8,1,1.35,1.34,1.25.06,2.68a7.31,7.31,0,0,0-1.07,1.52,2.41,2.41,0,0,0,.51,3.19,19.78,19.78,0,0,0,7.52,4.53,3.56,3.56,0,0,1,1.48.63,1.33,1.33,0,0,1,.48,1.25c-.11.66-.69.49-1.11.51-8.09.29-16.18.49-24.22-.91-4-.71-4-.63-3.28-4.65.91-4.89,1.54-9.84,2.93-14.63,1-3.43,1.61-7,2.59-10.39a24.27,24.27,0,0,1,1-2.86c.78-1.8.81-1.78,3-1.51C280.39,250.94,281.16,254,281,257Z"/><path class="cls-9" d="M223.68,144.43c-2.79-1.25-4.29-3.76-5.92-6.1a21.79,21.79,0,0,1-3.83-12.74,20.76,20.76,0,0,1,3.33-11.22,6.54,6.54,0,0,1,.91-1.06c2.48-2.52,5.21-2,6.66,1.22a22.4,22.4,0,0,1,.75,2.45,4.49,4.49,0,0,0,1,2.3c-.54,3.29-1.24,6.56-1.58,9.89a1.4,1.4,0,0,1-1,1.4c-1.47.58-1.85,1.36-.86,2.38,1.71,1.77,1.24,3.7,1.06,5.68S224.28,142.54,223.68,144.43Z"/><path class="cls-8" d="M196.38,365.5c.2-1.46.44-2.92.58-4.39a1.88,1.88,0,0,1,1.59-1.93c6.67-1.74,9.63-6.63,10.78-13a7.32,7.32,0,0,0,0-2.09c-.2-2.23-.22-2.23,2.23-2.7a22.22,22.22,0,0,0,2.22,6.78c.79,1.61,1.84,2.89,3.75,3.15.46,0,1-.21,1.33.19s-.15.85-.45,1.15c-.93.94-1.92,1.82-2.8,2.81-1.86,2.11-2,3.09-.63,5.63a1.21,1.21,0,0,1,.2,1.09l-9.34,8.56c-1,0-1.38-.9-2-1.41a10.94,10.94,0,0,0-5.76-2.28C197.16,367,196.17,366.89,196.38,365.5Z"/><path class="cls-8" d="M305.05,290.33c2.73,1.88,5.17,3.93,7.66,5.91,1.83,1.45,3.76,2.74,5.72,4a2.78,2.78,0,0,0,3.59,0,11.72,11.72,0,0,1,5.71-1.83c1.31-.15,1.53.2,1,1.46q-3,7.07-6.09,14.11a31.86,31.86,0,0,1-2.16,4.69,8.93,8.93,0,0,1-3.86-6.15c-.1-.61-.28-1.22-.34-1.83a4,4,0,0,0-3.09-3.83,6.49,6.49,0,0,1-4.65-5C307.59,298,306.23,294.17,305.05,290.33Z"/><path class="cls-8" d="M334.13,390.37a21.19,21.19,0,0,1,4.43.19,27.09,27.09,0,0,1,2.24,6.68c-2.54,1.93-5.1,3.85-7.61,5.82a2.29,2.29,0,0,1-2.89.27,31,31,0,0,0-14.79-3.7,1.7,1.7,0,0,1-1.54-2.19c.19-.47.6-.43,1-.45a17,17,0,0,0,5.18-1.36c3.72-1.42,4.42-2.7,3.6-6.56-.19-.42,0-.62.39-.73,1,.17,1.53,1,2.19,1.63C329.57,393.13,330.7,393.2,334.13,390.37Z"/><path class="cls-8" d="M321.43,372.53c.64.05.89.53,1.14,1,.82,1.67,1.63,3.35,2.51,5,.41.79.4,1.29-.58,1.53a20.15,20.15,0,0,0-2,.63c-3.93,1.37-4.86,3.8-2.87,7.39.41.75.83,1.5,1.17,2.28a1.26,1.26,0,0,1-.56,1.8,14.93,14.93,0,0,1-5.73,1.83c-1.65.09-2-.18-2.5-1.78-1.17-3.46-2.05-7-2.92-10.55-.23-1.3.67-1.79,1.63-2.21,1.57-.68,3.19-1.27,4.76-1.94,1.24-.54,1.55-1.25.45-2.25a1.17,1.17,0,0,1-.26-.59.77.77,0,0,1,.66-.64,2.36,2.36,0,0,0,1.42-.52C318.71,372.23,320.15,372.67,321.43,372.53Z"/><path class="cls-8" d="M233.48,349.69l-3.41,2.24c-1-1.18-1.19-2.58-1.8-3.78-1.19-2.35-3.08-3.27-5.34-2.55a7.88,7.88,0,0,0-1.45.73c-.47.27-.9.61-1.36.9-2.22,1.4-2.76,1.26-3.87-1.11a11.53,11.53,0,0,1-1.49-4.62,1.9,1.9,0,0,1,1.34-2.12c4-1.57,8-2.89,12.1-4.22a3.88,3.88,0,0,1,3.28.58.85.85,0,0,1,.51.34,18.25,18.25,0,0,1,.82,2.05,5.29,5.29,0,0,1,.21.6,4,4,0,0,1,.31,2.19,1,1,0,0,1-.71.6c-1.48.24-1.33,1.27-1.1,2.31a25.15,25.15,0,0,0,1.37,3.46C233.17,348.06,233.85,348.75,233.48,349.69Z"/><path class="cls-6" d="M284.52,70.59c1.53-.07,3-.72,4.6-.27a8.41,8.41,0,0,1,6.4,6.42c.94,3.87,1.35,3.73-2.74,3.69q-3.51,0-7,0c-.74,0-1.58-.24-2.18.47-1,.38-1.34-.45-1.89-.92a.59.59,0,0,0-.92,0h0c-.62.31-1,.27-1-.58a.55.55,0,0,1,.17-.35,2,2,0,0,0,.34-.56Q282.39,74.54,284.52,70.59Z"/><path class="cls-10" d="M307.7,268.27a3.93,3.93,0,0,1-1.27,2.67c-2.08,2-4.21,3.91-6.31,5.86a1.88,1.88,0,0,1-2.53.28c-1.11-.71-2.28-1.33-3.39-2-1.55-1-1.59-1.2-.25-2.61a35.09,35.09,0,0,1,3.56-3.34c2.18-1.74,4.47-3.34,6.71-5,.91-.68,1.51-.49,2,.55A16.32,16.32,0,0,1,307.7,268.27Z"/><path class="cls-11" d="M281,257a23.29,23.29,0,0,1-1.14-6.24,5.39,5.39,0,0,1,.54-2.88,29.46,29.46,0,0,1,9.55,5.18,18.71,18.71,0,0,1,4.46,4,10.19,10.19,0,0,1-4.21,5.62c-1.7-1.26-2.84-3.08-4.38-4.49-.52-.47-1-1-1.5-1.47C282.89,255.58,282.42,255.64,281,257Z"/><path class="cls-12" d="M367.4,191.49a19.69,19.69,0,0,1-13.69,11.08l2-6.42c.82.37,1.54,1,2.37.41s.75-1.47.64-2.33a8.8,8.8,0,0,1,4-9,1,1,0,0,1,1-.19,6.45,6.45,0,0,1,.18,3.28c-.07.88-.27,1.78.73,2.22,1.17.52,1.66-.42,2.2-1.18C368.29,189.73,367.32,190.74,367.4,191.49Z"/><path class="cls-13" d="M196.38,365.5a1.17,1.17,0,0,0,1.33.95,11.31,11.31,0,0,1,3.79.83,8.69,8.69,0,0,1,4.39,3.51c-3.87,4-7.44,8.24-11,12.46l-.46-.23Z"/><path class="cls-14" d="M215.23,362.23c-2.44-2.87-2.41-4.62.23-7.37,1-1.05,2.11-2,3.19-3-.11-.61-.84,0-1.07-.46a11.28,11.28,0,0,0,5.33-2.09c1.45-1,1.91-.76,2.66.8,1.75,3.62,1.78,3.65-1.53,5.73C221,357.73,218.2,360.13,215.23,362.23Z"/><path class="cls-15" d="M224.55,182.39l-.2,0-.19-.06a.6.6,0,0,1,0-.91l.05,0a1.94,1.94,0,0,0,.83-1c2-5.88,1.1-11.49-1.53-16.94,1.79-1.34,3.56-1.28,5.69.17q0,6.84,0,13.68v7.45l-3.17-2C225.6,182.41,225,182.69,224.55,182.39Z"/><path class="cls-16" d="M220.89,179.53a6.27,6.27,0,0,0-6.43-4.41c.3-2.1.34-2.15,2-2.11,1.27,0,1.81-.49,1.7-1.88a30.82,30.82,0,0,1-.22-4,8.16,8.16,0,0,1,.64-2.94c.43-.94,1.14-1,1.77-.16a3.81,3.81,0,0,1,.47.81c2.21,4.76,3.09,9.61,1,14.66A.65.65,0,0,1,220.89,179.53Z"/><path class="cls-17" d="M223.29,158.29a6.09,6.09,0,0,1,3.08-1.51c.87-.22,1.45-.68,1.23-1.62a1.57,1.57,0,0,0-1.78-1.19,6.44,6.44,0,0,0-2,.6,17,17,0,0,0-5.25,3.75c-1.13.11-2.32.75-3.31-.36,1-3,3.22-4.91,5.75-6.44,2-1.23,6.1-.31,7.86,1.44a2.35,2.35,0,0,1,.52,1.26,12.89,12.89,0,0,1-.08,5.53C227,160.52,225.13,159.46,223.29,158.29Z"/><path class="cls-18" d="M334.13,390.37c-1.22,2.63-2.76,3.29-5.3,2.23-2-.83-3.23-2.54-4.59-4.09-.64-.33-1-1-1.48-1.44-.22-.41-.45-.81-.66-1.22a1.1,1.1,0,0,1,.6-1.71c1.07-.42,2.19-.76,3.29-1.11a1,1,0,0,1,1.16.55c.58.83,1.2,1.62,1.72,2.48A9.14,9.14,0,0,0,334.13,390.37Z"/><path class="cls-16" d="M290.15,262.7c1.4-1.87,2.81-3.74,4.21-5.62,2,1.38,3.39,3.35,5.08,5,.52.52.31.93-.2,1.32q-2.3,1.76-4.58,3.54c-.58.46-1,.23-1.35-.26a35.8,35.8,0,0,1-2.91-3.58.83.83,0,0,0-.24-.4Z"/><path class="cls-19" d="M340.8,397.24c-1.19-2.08-2.38-4.16-2.25-6.68a60.89,60.89,0,0,1,9.21-1.17,7.61,7.61,0,0,1,2.65.17c-1.51,1.63-3.33,2.63-4.88,3.93S342.38,396,340.8,397.24Z"/><path class="cls-17" d="M366.8,182.31a25.75,25.75,0,0,0-3.65-8.95c-.76-1.05,0-1.82.59-2.43s1.25.1,1.79.47a4.55,4.55,0,0,1,1.39,1.82,19.6,19.6,0,0,1,2.22,11.44C367.4,184.82,367.54,183.13,366.8,182.31Z"/><path class="cls-20" d="M345,290.65a3.14,3.14,0,0,0,.57-2,29.78,29.78,0,0,0-2.11-9.49c-.4-.88-1-1.81.31-2.34,1.05-.46,1.76.2,2.18,1.16.15.36.29.72.43,1.08a1.44,1.44,0,0,0,.3.49c0,.14.07.28.11.42a7.48,7.48,0,0,1,.74,1.25,23.14,23.14,0,0,1,1.46,8.31A17.22,17.22,0,0,1,345,290.65Z"/><path class="cls-21" d="M355.16,110.34c2.75-.09,4.48,1.43,5.79,3.63a17,17,0,0,1,2.12,8.49,2.14,2.14,0,0,0,1.42,2.28c-1.87.2-1.88.2-1.84-1.54,0-.63.12-1.34-.41-1.75-1.78-1.38-2.49-3.53-3.74-5.28A61.94,61.94,0,0,1,355.16,110.34Z"/><path class="cls-22" d="M348.83,273.82c.68-.62,1.34-1.28,2.06-1.87,1.11-.92,1.29-.9,2.16.34a12,12,0,0,1,1.9,4.23c.3,1.28.11,1.58-1.15,1.67-1.08.07-2.17,0-3.25,0A10.93,10.93,0,0,1,348.83,273.82Z"/><path class="cls-23" d="M224,185.65a3,3,0,0,1,2.87,2.78,2.8,2.8,0,0,1-3,2.88,2.69,2.69,0,0,1-2.71-2.84A2.87,2.87,0,0,1,224,185.65Z"/><path class="cls-24" d="M212.54,170.31a2.92,2.92,0,0,1-2.77,2.92,3.07,3.07,0,0,1-2.92-2.78,3,3,0,0,1,2.91-3A2.92,2.92,0,0,1,212.54,170.31Z"/><path class="cls-25" d="M217.84,181.27a2.88,2.88,0,0,1-2.9,2.74,3,3,0,0,1-2.81-2.84,3,3,0,0,1,3.05-2.87A2.89,2.89,0,0,1,217.84,181.27Z"/><path class="cls-26" d="M338,311.19c.33,0,.71.11,1.09.14a.94.94,0,0,1,1,1.26,12,12,0,0,1-2.43,5.21c-.42.51-.87.49-1.41.1-1.41-1-1.64-1.71-1-3.3.36-.86.76-1.7,1.1-2.56S337.14,310.89,338,311.19Z"/><path class="cls-27" d="M315.85,375c.85.05,1.63.36,1.73,1.26.12,1.06-.77,1.37-1.6,1.69-1.82.7-3.61,1.47-5.42,2.18-.76.3-1.42.63-1.47,1.56-.3-1.34-1.14-2.7.13-4,1-1.46,2.87-1.14,4.1-2.09A3.42,3.42,0,0,1,315.85,375Z"/><path class="cls-28" d="M233.48,349.69a34.25,34.25,0,0,1-2.57-5.65,3.55,3.55,0,0,1-.27-2c.26-1.15.92-1.53,2-.83,1.8,1.39,1.63,3.77,2.77,5.49a4.49,4.49,0,0,1,.26.54,3.51,3.51,0,0,1,.24.84,2.71,2.71,0,0,0,0,.29A7.4,7.4,0,0,1,233.48,349.69Z"/><path class="cls-29" d="M233.09,340.8c-.1-.78-.66-1.45-.56-2.28.94-.45,1.72.44,2.61.32a3.69,3.69,0,0,0,1.4-.17l.51-.23.49-.27.26-.14a.78.78,0,0,1,.82,0,1.07,1.07,0,0,1,0,.91,1.68,1.68,0,0,1-.42.42l0,0c-.21.3-.7.21-.84.6-.4.34-.8.68-1.21,1-.6.47-1.25.94-1,1.83a1.59,1.59,0,0,0,1.69,1.22c.53-.12.67.13.6.6-.36,1.28.06,2.86-1.43,3.7l-.15-.17c-.15-.27-.14-.61-.39-.83l0,0A35.49,35.49,0,0,1,233.09,340.8Z"/><path class="cls-30" d="M229.2,163.62c-1.89-.16-3.77-1-5.69-.17l-2.17-3a8,8,0,0,1,7.93.43A7.43,7.43,0,0,1,229.2,163.62Z"/><path class="cls-31" d="M348.2,281.21l3.17.31c.77.67.62,1.68.94,2.51.12.55.24,1.09.33,1.64a2,2,0,0,1-.23,1,6.66,6.66,0,0,1-2.86,2.55A22.39,22.39,0,0,1,348.2,281.21Z"/><path class="cls-32" d="M314,318.37a.38.38,0,0,1-.09-.35c-.11-.5-.41-1.09.53-1h0c.27.24.18.68.48.91h0c.25.25.16.71.54.89.93,1,1.82,2.08,2.81,3.06a1.26,1.26,0,0,1,.3,1.64,18.87,18.87,0,0,1-1.75,3.53,67.43,67.43,0,0,1-2.45-7.6C314.22,319.08,314.28,318.66,314,318.37Z"/><path class="cls-33" d="M291.11,244.06l4.4.87c-1,1.52-1.84,2.87-2.74,4.19a1.07,1.07,0,0,1-.73.48c-.49,0-.54-.46-.59-.85A15,15,0,0,1,291.11,244.06Z"/><path class="cls-34" d="M344.79,273.06a45.43,45.43,0,0,0-2.7-3.92,1.38,1.38,0,0,1-.23-1.69,4.64,4.64,0,0,1,2.37,0,4.55,4.55,0,0,1,2.58,3.78,1.88,1.88,0,0,1-.85.93C345.37,272.19,345.7,273.4,344.79,273.06Z"/><path class="cls-35" d="M237.14,338.87a.54.54,0,0,0-.35.09c-.44.36-1,.07-1.49.38a3.26,3.26,0,0,1-2.77-.82v0c-.56-1.4.17-2.09,1.37-2.58s2.23-.32,3.3-.7c.58.55,1.4.91,1.44,1.88-.56.28-.54,1-1,1.35h0A1,1,0,0,1,237.14,338.87Z"/><path class="cls-36" d="M344.79,273.06c.49-.19.59-.86,1.17-.93-.41,2.62.08,3.08,2.47,2.32a4.18,4.18,0,0,1,1.59,3.69c-1.31-.07-2.41.19-2.64,1.75-.07.22-.15.23-.24,0v-1.24c-.2-.28-.09-.68-.37-.93l-1.49-3.66a2.29,2.29,0,0,0-.31-.55Z"/><path class="cls-37" d="M316.33,374.06l-.47.42a5.12,5.12,0,0,1-2.64,1.12l-.22-.24c0-1.71.67-3.61-1.38-4.72a.47.47,0,0,1-.19-.6.86.86,0,0,1,.69-.56c.75-.14,1.07.38,1.46.9C314.49,371.61,315,373.14,316.33,374.06Z"/><path class="cls-38" d="M237.21,335.22c0,.37,0,.77-.55.83l-2.26.31a1.88,1.88,0,0,0-1.86,2.14,4.67,4.67,0,0,1-.84-2.34c.36-.48,1-.08,1.39-.45h0a1.1,1.1,0,0,1,.51-.49c.34-.31.24-.69.2-1.07-.08-.9.69-.93,1.24-1.09a1.37,1.37,0,0,1,1.59.67C236.89,334.19,236.73,334.84,237.21,335.22Z"/><path class="cls-39" d="M229.27,160.84a31,31,0,0,0-7.93-.43c0-1.33,1.15-1.55,1.95-2.12,2.1.13,3.93,1.32,6,1.46A1.52,1.52,0,0,1,229.27,160.84Z"/><path class="cls-40" d="M288.12,239.9c-1.07-.08-2.15-.15-3.21-.26a.6.6,0,0,1-.57-.6.45.45,0,0,1,.43-.46,4.71,4.71,0,0,0,3.07-1.34c1.08-.83,1.72-.4,1.89,1.06a.58.58,0,0,0,0,.23c.12.28.24.56.37.84C289.75,240.64,288.84,239.93,288.12,239.9Z"/><path class="cls-41" d="M348.2,281.21a25.51,25.51,0,0,1,1.35,8l-.55.37a2.42,2.42,0,0,1-.7-1.87c-.19-2.28-.76-4.49-1.17-6.72a.47.47,0,0,1,.65-.08Z"/><path class="cls-42" d="M215.27,158c1.08.34,2.26-.22,3.31.36l-1.88,2.51c-.91.62-1.78.81-2.55-.2A6.38,6.38,0,0,1,215.27,158Z"/><path class="cls-43" d="M367.4,191.49c-.1-.74.22-1.59-.54-2.16,0-1.55.08-3.09.13-4.63,1.26,0,1.47,1.15,2,1.92A14.48,14.48,0,0,1,367.4,191.49Z"/><path class="cls-44" d="M351.89,281.53a7.45,7.45,0,0,1,2.94,0,7.34,7.34,0,0,1-1.46,4c-.65.06-1-.36-1.21-.87,0-.22-.05-.43-.07-.64C352,283.17,351.29,282.4,351.89,281.53Z"/><path class="cls-45" d="M214.15,160.63c.82.44,1.69.16,2.55.2-.45,1.07-.89,2.15-1.34,3.23-.72.22-1.43.86-2.15,0A14,14,0,0,1,214.15,160.63Z"/><path class="cls-46" d="M283.65,243c.54,0,1.08.06,1.62.11,1.86.17,2,.33,1.63,2.75a29.73,29.73,0,0,0-4.72-2.43l-.56-.32c0-1.09.67-.31,1-.4C283,242.91,283.34,242.87,283.65,243Z"/><path class="cls-47" d="M360.18,181.34a5.43,5.43,0,0,1,.63-2.4,1,1,0,0,1,1.27.22c.2.07,0,.55.41.4l.24,0c.54,1.78.54,1.78-1.43,2.84C360.49,182.51,360.14,182.13,360.18,181.34Z"/><path class="cls-48" d="M220.89,179.53h1a1.86,1.86,0,0,0,2.32,1.9v.91l-3.27.79Z"/><path class="cls-49" d="M346.74,267.89c.9.13,2.12.22,2.24,1.17s-1,1.42-1.75,1.92C346.82,270,345,269.22,346.74,267.89Z"/><path class="cls-50" d="M332.16,143.09c3.13,0,6.27,0,9.41,0,.66,0,1.41-.2,1.88.52-3,0-6.06,0-9.09-.06C333.61,143.53,332.79,143.73,332.16,143.09Z"/><path class="cls-51" d="M312.58,314.16a22.55,22.55,0,0,1-1.45-4.14c2,.07,2,.07,2,2.51C313.12,313.13,313.83,314,312.58,314.16Z"/><path class="cls-52" d="M369,186.62c-1.09-.21-1.24-1.4-2-1.92a7.13,7.13,0,0,1-.19-2.39c1.13.44,1.15,2,2.34,2.35A3.73,3.73,0,0,1,369,186.62Z"/><path class="cls-53" d="M321.43,372.53a21.33,21.33,0,0,1-3.68,1c0-.78,0-1.57,0-2.35l0,0A19,19,0,0,1,321.43,372.53Z"/><path class="cls-54" d="M213.21,164.06c.72.15,1.44-.4,2.15,0a5,5,0,0,1-.71,2.62C213.87,165.91,212.49,165.64,213.21,164.06Z"/><path class="cls-55" d="M346.74,267.89a1.19,1.19,0,0,0,0,1.64,1.91,1.91,0,0,1,.49,1.45l-.42.22-2.58-3.78a3.36,3.36,0,0,1,2.29.29l.19.16Z"/><path class="cls-56" d="M312.58,314.16c.6-.41.44-1.06.52-1.63.45,1.48.89,3,1.34,4.44-.41.23-.41.67-.53,1A13.91,13.91,0,0,1,312.58,314.16Z"/><path class="cls-57" d="M350,278.14l-1.59-3.69.4-.62a6.46,6.46,0,0,1,1.71,4.35Z"/><path class="cls-58" d="M288.12,239.9c.66-.21,1.48.19,2-.53a2.81,2.81,0,0,0,1.76.28c.34-.1.61,0,.63.4s-.19.79-.65.7C290.61,240.51,289.37,240.19,288.12,239.9Z"/><path class="cls-59" d="M332.52,321.4c-.29-.58.12-1,.35-1.44s.67-.52,1.08-.1.51.8,0,1.13S333.12,321.63,332.52,321.4Z"/><path class="cls-60" d="M313.52,375.9a26.58,26.58,0,0,1-4.3,1.8l.63-1.36c.46-.62,1.14-.29,1.72-.38l1.14-.27a2.49,2.49,0,0,1,.47,0A.33.33,0,0,1,313.52,375.9Z"/><path class="cls-61" d="M311.57,376c-.51.42-1.15.24-1.72.38.06-.84-1-1.7.14-2.68C310.54,374.44,310.59,375.57,311.57,376Z"/><path class="cls-62" d="M237.35,344.64l-.6-.6c.68-.47,1.35-1,2-1.41.35-.23.71-.32.89.18s.09.82-.44.77C238.32,343.49,237.88,344.13,237.35,344.64Z"/><path class="cls-63" d="M279.73,79.38c.21.44.61.51,1,.58-.67.58-.85,1.76-2.23,1.85A3.76,3.76,0,0,1,279.73,79.38Z"/><path class="cls-64" d="M362.13,179.57l-1.32-.63a2.17,2.17,0,0,1,0-.44c.08-.43.22-1.07.58-1.11.59-.07.77.53.83,1.06a2.42,2.42,0,0,0,.29.58l.21.56-.15,0A.35.35,0,0,1,362.13,179.57Z"/><path class="cls-65" d="M313.06,290.78c-.35.11-.79,0-1,.47-.8-.23-1.2-1-1.8-1.44-.16-.09-.22-.2-.18-.31s.09-.18.13-.18A8.76,8.76,0,0,1,313.06,290.78Z"/><path class="cls-66" d="M317.73,371.19a3.78,3.78,0,0,1-1.1-1.41c-.19-.35.09-.57.38-.67s.69,0,.73.3a13.56,13.56,0,0,1,0,1.8Z"/><path class="cls-67" d="M301,239.8l-1.14-.49a7.91,7.91,0,0,1,1.06-2.28c.49-.14.63.07.53.52A2.36,2.36,0,0,0,301,239.8Z"/><path class="cls-68" d="M360.18,181.34l1.12,1.09-1,.86c-.94.05-.68-.53-.56-1A1.18,1.18,0,0,1,360.18,181.34Z"/><path class="cls-69" d="M351.89,281.53c-.13,1,.61,1.77.44,2.73-.14.2-.29.19-.44,0a4.94,4.94,0,0,1-.52-2.75Z"/><path class="cls-70" d="M298.06,241.21l0,1c-.74-.37-1.72-.19-2.58-1.17Z"/><path class="cls-71" d="M373.34,195.43c.17-.74.33-1.49,1.13-1.84A4.85,4.85,0,0,1,373.4,196l-.12-.17A.29.29,0,0,1,373.34,195.43Z"/><path class="cls-72" d="M237.7,338.45c0-.35.11-.7.12-1.06,0-.83.46-.45.83-.29l0,.92Z"/><path class="cls-73" d="M427.87,84.55c.5,0,.83.36,1.23.55.07.44-.07.66-.54.56l-1.37-.61C427.17,84.54,427.4,84.38,427.87,84.55Z"/><path class="cls-74" d="M352.36,284.7l1,.8a1.94,1.94,0,0,1-1,1.14c0-.3-.09-.61-.14-.91A.86.86,0,0,1,352.36,284.7Z"/><path class="cls-75" d="M322.76,387.07a2.4,2.4,0,0,1,1.48,1.44l-.52.56A3.34,3.34,0,0,1,322.76,387.07Z"/><path class="cls-76" d="M339.73,307.14c.18.82-.2,1.05-.94.92a1.11,1.11,0,0,1,0-1.38h0C339.31,306.38,339.45,306.9,339.73,307.14Z"/><path class="cls-77" d="M339.73,307.14l-1-.47c0-.36.09-.83.58-.66S339.75,306.71,339.73,307.14Z"/><path class="cls-78" d="M359.75,182.25c.1.39.06.86.56,1-.22.27-.52.68-.83.31S359.4,182.65,359.75,182.25Z"/><path class="cls-79" d="M428.56,85.66c.25-.11.5-.24.54-.56.4.09.74.42.53.72S428.88,86,428.56,85.66Z"/><path class="cls-80" d="M427.87,84.55l-.68.5c-.42-.11-1.07-.4-.81-.75C426.78,83.77,427.41,84.14,427.87,84.55Z"/><path class="cls-81" d="M309.26,288.92a1.44,1.44,0,0,1-.9-.93h0a1.64,1.64,0,0,1,1.47.87C309.68,289.13,309.48,289.16,309.26,288.92Z"/><path class="cls-82" d="M347.78,280.89l-.65.08a.89.89,0,0,1-.33-1,.59.59,0,0,0,.34-.1.29.29,0,0,0,.24,0C347.52,280.22,347.65,280.55,347.78,280.89Z"/><path class="cls-83" d="M301.41,237.55l-.53-.52c.17-.58.68-.8,1-.44S301.81,237.34,301.41,237.55Z"/><path class="cls-77" d="M338.77,306.68c0,.46,0,.92,0,1.38C337.9,307.61,338.36,307.14,338.77,306.68Z"/><path class="cls-84" d="M296.81,237.51l-.38.22c0-.14-.13-.31-.09-.41a.43.43,0,0,1,.37-.18C296.91,237.18,296.94,237.34,296.81,237.51Z"/><path class="cls-48" d="M224.55,182.39c.56-.15,1.1-.23,1.49.36A1.82,1.82,0,0,1,224.55,182.39Z"/><path class="cls-48" d="M225,180.39c.1.64-.15,1-.83,1A2.25,2.25,0,0,1,225,180.39Z"/><path class="cls-35" d="M233.09,335.71c-.32.57-.91.34-1.39.45l-.22-.42Z"/><path class="cls-85" d="M309.26,288.92l.58-.07c.21.09.39.21.39.47s0,.33,0,.49A1.67,1.67,0,0,1,309.26,288.92Z"/><path class="cls-72" d="M237.31,340c.1-.45.43-.58.84-.6A1,1,0,0,1,237.31,340Z"/><path class="cls-86" d="M283.65,243a1,1,0,0,1-1-.29A1.05,1.05,0,0,1,283.65,243Z"/><path class="cls-56" d="M314,318.37a.85.85,0,0,1,.38,1.05A1,1,0,0,1,314,318.37Z"/><path class="cls-9" d="M247.12,94.06a.81.81,0,0,1,.89-.55A1,1,0,0,1,247.12,94.06Z"/><path class="cls-63" d="M280.77,80c.32-.49.63-.48.92,0Z"/><path class="cls-56" d="M314.93,317.89a.75.75,0,0,1-.48-.91A.93.93,0,0,1,314.93,317.89Z"/><path class="cls-81" d="M308.36,288l-.19-.21a.5.5,0,0,1,.13,0,.87.87,0,0,1,.07.17Z"/><path class="cls-87" d="M362.52,179l-.29-.58Z"/><path class="cls-35" d="M233.6,335.23a.56.56,0,0,1-.51.49A.63.63,0,0,1,233.6,335.23Z"/><path class="cls-86" d="M281.62,243.15a.58.58,0,0,1,.56.32A.55.55,0,0,1,281.62,243.15Z"/><path class="cls-72" d="M238.19,339.35l.42-.42A.39.39,0,0,1,238.19,339.35Z"/><path class="cls-11" d="M290.16,262.73c.2.07.31.18.24.4C290.15,263.1,290.12,262.94,290.16,262.73Z"/><polygon class="cls-49" points="346.71 267.87 346.53 267.86 346.52 267.71 346.67 267.69 346.71 267.87"/><path class="cls-63" d="M280.24,78.47a.54.54,0,0,1-.34.56A.53.53,0,0,1,280.24,78.47Z"/><path class="cls-27" d="M313,375.8a.77.77,0,0,1-.3-.11l.29-.33.07.12Z"/><path class="cls-14" d="M223.32,201.32c-.78,5.64-.66,11.71-.68,17.77,0,1.41-.27,1.62-1.63,1.62a4.13,4.13,0,0,1-.93-.09c-3.71-1-3.81-.8-3.19-4.46.92-5.44,1.3-10.95,2.53-16.34.44-1.89,1-2.19,2.76-1.57C223.26,198.61,223.41,199,223.32,201.32Z"/><path class="cls-14" d="M206.27,212.33a11.63,11.63,0,0,1-3.62-1.67,1.06,1.06,0,0,1-.35-1.26,16,16,0,0,1,.45-1.81q2.61-7.5,5.24-15c.16-.44.34-.87.52-1.3.37-.87.61-1.8,2-1.29,1.65.62,2.13,1.06,1.83,2.45s-.84,2.84-1.21,4.27c-1.18,4.52-2.17,9.08-2.93,13.69C207.88,212.24,207.67,212.44,206.27,212.33Z"/><path class="cls-18" d="M192.77,197.83a.56.56,0,0,1-.23-.05c-3.82-3-3.39-2.63-1.16-6,2.73-4.07,5.56-8.07,8.35-12.1a13.92,13.92,0,0,1,1-1.3c1.21-1.42,1.38-1.39,2.83-.31.81.61,1.13,1.24.65,2.18a9.19,9.19,0,0,1-.38.85c-3.37,5-5.85,10.43-8.67,15.7C194.6,197.75,193.91,198.33,192.77,197.83Z"/><path class="cls-88" d="M192.77,197.83a3.61,3.61,0,0,0,2.38-1C194.56,198.75,194.48,198.78,192.77,197.83Z"/><path class="cls-9" d="M154.93,64.21c1.68-2,2.73-3.85,4.32-5.18a9.11,9.11,0,0,1,6.1-2.49,6.8,6.8,0,0,1,5.53,2.92,17.94,17.94,0,0,1,2.47,5.14c.73-1.44,1.29-2.53,1.82-3.63a6,6,0,0,1,1.53-2c3.11-2.59,6.64-1.15,7.68,3a17,17,0,0,1-.24,8.26c-2.59,10.8-5.64,21.46-8.79,32.09-1.7,5.74-3.54,11.43-5.42,17.1a37.82,37.82,0,0,1-2,4.73,7.91,7.91,0,0,1-3.8,3.62c-3.52,1.78-6.71-.17-6.86-4.29a14.13,14.13,0,0,1,.76-4.33c2.8-10.17,5.74-20.3,8.3-30.54a31.31,31.31,0,0,0,.73-8.78c-.07-2.06-.88-3.32-2.08-3.55-1.83-.36-2.4,1.11-3.16,2.24a21.24,21.24,0,0,0-2.3,5.34c-2.29,6.93-4,14-5.61,21.12-.89,3.84-1.56,7.81-3.95,11.12-3.21,4.47-6.55,2.74-8.25-.36a12.43,12.43,0,0,1-1.06-8.61,169.26,169.26,0,0,1,6.13-21.72,34.65,34.65,0,0,0,2.07-10.92,12,12,0,0,0-.68-3.65c-.72-2.28-2.29-2.62-4-.88a18.43,18.43,0,0,0-3.72,6.43,164.23,164.23,0,0,0-7.05,24.1c-.76,3.32-1.46,6.66-3.49,9.56a6.48,6.48,0,0,1-3,2.4,3,3,0,0,1-3.71-1.07,7.46,7.46,0,0,1-1.48-4.09,37.23,37.23,0,0,1,1.09-10.15,188.35,188.35,0,0,1,6-21.52,121.28,121.28,0,0,1,8-19.11,26.46,26.46,0,0,1,5.3-7.34,8.43,8.43,0,0,1,5.88-2.41,4.79,4.79,0,0,1,4,2,15.34,15.34,0,0,1,3,8.91C155,59.67,154.93,61.66,154.93,64.21Z"/><path class="cls-9" d="M128.3,57.33a66.44,66.44,0,0,1-5,24.2,56.65,56.65,0,0,1-8.67,15.36c-3.5,4.18-7.28,8.08-12.79,9.75-8.54,2.59-16.26-2.45-17.59-11.18-.69-4.57.71-8.39,3.08-12a4,4,0,0,1,3.46-2.06,3,3,0,0,1,3,1.72,15.27,15.27,0,0,0,.85,1.66,6.18,6.18,0,0,0,9,2.09c3.67-2.35,5.78-6,7.73-9.71.5-1-.1-1.18-.9-1.38-2.78-.71-5.53-1.53-8.31-2.21-4.63-1.12-6.65-4.41-7.65-8.72-1.09-4.67-.07-9.11,1.29-13.49a32.57,32.57,0,0,1,7.65-12.88c7.14-7.57,17.43-4.35,21.38,3.37A31.35,31.35,0,0,1,128.3,57.33Z"/><path class="cls-9" d="M220.9,85.84a67.13,67.13,0,0,1-3.16,20.67,62.75,62.75,0,0,1-6.47,14.66,24.65,24.65,0,0,1-8.82,9.09c-6.64,3.75-12.35,2.29-17.09-4a21.57,21.57,0,0,1-3.67-9,39.17,39.17,0,0,1-1-11.31,85.32,85.32,0,0,1,2.64-15.53,66.31,66.31,0,0,1,4-11.43c2.63-5.39,5.59-10.56,10.61-14.22a14.06,14.06,0,0,1,7.74-2.9,10.42,10.42,0,0,1,7,2.19,20.21,20.21,0,0,1,6.83,10.61A33.4,33.4,0,0,1,220.9,85.84Z"/><path class="cls-89" d="M255.15,97.77c1,0,1.4.3,1.62.73.5,1,1,1.93,1.42,2.93.19.43.1,1.26-.26,1.21-1.4-.18-2,.84-2.83,1.54-.35.29-.93,0-1.2-.44a18.43,18.43,0,0,1-.89-1.64c-1-2-1-2,1.1-3C254.73,98.73,254.81,97.77,255.15,97.77Z"/><path class="cls-89" d="M260.42,118.51c-.43.86.14,1.33.36,1.87s.57,1.06,0,1.45a1.22,1.22,0,0,1-1.8-.49c-.62-1.07-1.14-2.2-1.71-3.31a2.32,2.32,0,0,1-.29-1.34,1.13,1.13,0,0,1,.59-.94.73.73,0,0,1,1,.33c.47.87.91,1.38,1.9.51.47-.41,1,0,1.45.33a13.49,13.49,0,0,1,1.68,2.22.8.8,0,0,1-.16,1.22.94.94,0,0,1-1.28,0C261.54,119.79,261,119.16,260.42,118.51Z"/><path class="cls-2" d="M348.67,120.05a.91.91,0,0,1-.94-1.08c.09-.69.15-1-.78-1.22-1.28-.26-1.37-.8-.53-1.73a15.44,15.44,0,0,1,2.18-2.1c.68-.5,1.48-.63,1.82.48a1.7,1.7,0,0,0,.51,1c1.42,1.15,1.4,1.17.42,2.54A5,5,0,0,1,348.67,120.05Z"/><path class="cls-90" d="M338.56,131.68a3.89,3.89,0,0,0-1.61.75c-.63.38-1.35.64-1.81-.15s.06-1.16.64-1.54,1.17-.76,1.72-1.18c.71-.53,1.32-.48,1.71.33s.91.92,1.55.22a.87.87,0,0,1,1.41,0c.5.49.25,1-.09,1.45a14.93,14.93,0,0,1-3.11,3.09c-.64.48-1.3.62-1.83-.09s0-1.12.52-1.52S338.6,132.51,338.56,131.68Z"/><path class="cls-90" d="M261.58,137.25c0,.56-.11.92-.55,1.07a.93.93,0,0,1-1.07-.18,15.75,15.75,0,0,1-2.48-3.87,1,1,0,0,1,.38-1.23.94.94,0,0,1,1.27,0A12,12,0,0,1,261.58,137.25Z"/><path class="cls-91" d="M320.07,128.58c1.47.71,1.77,1.27,1.05,2.34a29.47,29.47,0,0,1-2.32,2.9c-.34.4-.73.89-1.37.64s-.62-1-.61-1.6a1.94,1.94,0,0,1,.45-.54h0c.15-.16.3-.32.44-.49v0c.31-.21.2-.67.52-.88h0a2.14,2.14,0,0,1,.46-.49h0c.14-.18.31-.32.45-.49h0c.3-.24.21-.67.46-.93h0A4.12,4.12,0,0,0,320.07,128.58Z"/><path class="cls-91" d="M278.21,121.63a.81.81,0,0,1,.64.59c.45,1.48.94,3,1.36,4.45.15.52.21,1.14-.51,1.35a1,1,0,0,1-1.15-.59,10.19,10.19,0,0,1-1.51-4.37C277,122.18,277.57,121.56,278.21,121.63Z"/><path class="cls-92" d="M362.51,145a2.59,2.59,0,0,1-.3.57,9.74,9.74,0,0,1-4.36,2.57.81.81,0,0,1-1-.49.73.73,0,0,1,.18-.85,14.64,14.64,0,0,1,4.29-2.69C361.88,143.86,362.38,144.3,362.51,145Z"/><path class="cls-93" d="M316.27,131.83c-1.84-.36-2.13-.74-1.14-2.09s1.06-3.16,3-3.48c1,.6.89,1.42.48,2.3h0a3.52,3.52,0,0,1-.46.49h0c-.27.25-.18.69-.48.93h0c-.13.17-.3.32-.44.49v0c-.3.22-.2.67-.5.9h0A2,2,0,0,1,316.27,131.83Z"/><path class="cls-94" d="M234.29,122.74a1.94,1.94,0,0,1,.4.22,18.8,18.8,0,0,1,3,3.46,1,1,0,0,1-.05,1.26c-.39.51-.83.25-1.22,0a9.58,9.58,0,0,1-3-3.67C233.1,123.5,233.75,122.67,234.29,122.74Z"/><path class="cls-95" d="M281.36,97.33c.73,0,1.14.4,1.18,1a14,14,0,0,0,.85,3.33c.15.47.15.93-.4,1.15a1,1,0,0,1-1.26-.25,7.41,7.41,0,0,1-1.26-4.08A1.18,1.18,0,0,1,281.36,97.33Z"/><path class="cls-91" d="M283.13,124.64c0,.76,0,1.38-.66,1.51a1,1,0,0,1-1.19-.85c-.34-1.18-.68-2.37-.95-3.57a1.07,1.07,0,0,1,.64-1.34,1.1,1.1,0,0,1,1.41.87A33.43,33.43,0,0,1,283.13,124.64Z"/><path class="cls-94" d="M322.88,109.74c-.6-.13-1.08-.52-.74-1.11a40,40,0,0,1,2.41-3.67.87.87,0,0,1,1.08-.11.77.77,0,0,1,.46.73c.09,1-1.79,3.75-2.74,4.06Z"/><path class="cls-96" d="M333.41,119.74c-.44,0-.83-.06-1-.48a.88.88,0,0,1,.26-1.05c1-.86,2-1.71,3-2.51a1,1,0,0,1,1.26.13.71.71,0,0,1,.17,1,11,11,0,0,1-3,2.78A1.78,1.78,0,0,1,333.41,119.74Z"/><path class="cls-97" d="M239.82,160.22a1.34,1.34,0,0,1-.6.93.83.83,0,0,1-1.05-.21c-.74-.89-1.46-1.78-2.13-2.72a1.08,1.08,0,0,1,.05-1.3,1,1,0,0,1,1.06-.26C238.15,156.88,239.88,159.2,239.82,160.22Z"/><path class="cls-92" d="M270.21,108.41c-.1.75-.71,1-1.31.56a9.17,9.17,0,0,1-2.31-3.68c-.19-.42.07-.75.36-1a.86.86,0,0,1,1.07,0C268.77,104.66,270.32,107.6,270.21,108.41Z"/><path class="cls-89" d="M245.85,141a1.25,1.25,0,0,1,1,.76c.45,1.06.82,2.16,1.25,3.23a1,1,0,0,1-.39,1.4c-.67.43-1-.1-1.29-.55a6,6,0,0,1-1.23-3.89A1,1,0,0,1,245.85,141Z"/><path class="cls-96" d="M318.48,94.84a1.23,1.23,0,0,1-.08.44c-.69,1-1.37,2-2.11,3a.93.93,0,0,1-1.27.15.85.85,0,0,1-.34-1.2,12.12,12.12,0,0,1,2-2.84,1.06,1.06,0,0,1,1.27-.27A1,1,0,0,1,318.48,94.84Z"/><path class="cls-98" d="M292.07,89.79c1.41.38,1.32,1.67,1.65,2.6.25.71,1,1.57,0,2.31a.92.92,0,0,1-1.41-.26,9.9,9.9,0,0,1-1.11-3.72C291.14,90.2,291.66,90,292.07,89.79Z"/><path class="cls-96" d="M360.28,141.45a1.1,1.1,0,0,1-1,1.11c-1.22.12-1.77,2-3.28,1.26a.67.67,0,0,1-.29-.81c.21-1,2.59-2.78,3.57-2.65A1.06,1.06,0,0,1,360.28,141.45Z"/><path class="cls-92" d="M237.36,120.14a1.53,1.53,0,0,1,1.46.56c.5.69,1,1.41,1.41,2.14.29.48.46,1.06-.19,1.4a1,1,0,0,1-1.27-.26c-.73-.8-1.51-1.57-2.17-2.43C236.06,120.85,236.46,120.18,237.36,120.14Z"/><path class="cls-99" d="M248.49,113.77c.13.06.4.1.52.25a9,9,0,0,1,1.74,3.68.83.83,0,0,1-1.24.82c-.88-.44-2.15-3.09-1.89-4A1,1,0,0,1,248.49,113.77Z"/><path class="cls-91" d="M351.87,131.65c0,1.16-2.12,3.39-3.18,3.46-.75,0-1.25-.58-.84-1.18a9.37,9.37,0,0,1,2.94-2.87C351.39,130.71,351.76,131.18,351.87,131.65Z"/><path class="cls-93" d="M259.1,140.15a1,1,0,0,1-1.44,1,4.69,4.69,0,0,1-2.14-3.1c0-.66.31-1,1-.93S259,139.36,259.1,140.15Z"/><path class="cls-100" d="M234.39,147.94a1.08,1.08,0,0,1-.55.95.8.8,0,0,1-1-.24,6.34,6.34,0,0,1-1.53-2.82c-.16-.54-.09-1.12.59-1.31a1,1,0,0,1,1.19.47A16.71,16.71,0,0,1,234.39,147.94Z"/><path class="cls-101" d="M328.46,109.25c-.53-.08-.9-.48-.73-1a7.16,7.16,0,0,1,2.21-3.23c.55-.46,1.07-.11,1.26.48C331.54,106.57,329.57,109.21,328.46,109.25Z"/><path class="cls-102" d="M291.51,130.75c0,.62-.09,1.09-.61,1.26a1,1,0,0,1-1-.39,6.28,6.28,0,0,1-1.13-3.21,1,1,0,0,1,.74-1,.83.83,0,0,1,.95.49A12.14,12.14,0,0,1,291.51,130.75Z"/><path class="cls-95" d="M237.68,135.19c.79.2,1.17.86,1.55,1.54,1,1.67,1.05,2.63.22,2.8-1.32.27-1.55-1-2-1.78a3,3,0,0,1-.64-1.71C236.82,135.51,237,135.16,237.68,135.19Z"/><path class="cls-92" d="M308.55,131.21a5.39,5.39,0,0,1-2.4,3.31c-.66.2-1-.1-1.06-.79a4.5,4.5,0,0,1,2.32-3.22C308,130.37,308.46,130.59,308.55,131.21Z"/><path class="cls-103" d="M275.59,97.44c0-.65-.12-1.3.58-1.47s1.09.38,1.3,1,.46,1.47.71,2.2a.89.89,0,0,1-.41,1.18,1,1,0,0,1-1.4-.4A6.41,6.41,0,0,1,275.59,97.44Z"/><path class="cls-92" d="M250.78,130a1.15,1.15,0,0,1-.47,1.16.71.71,0,0,1-1-.19c-.59-1-1.16-2-1.67-3a.82.82,0,0,1,.3-1A.86.86,0,0,1,249,127,7.36,7.36,0,0,1,250.78,130Z"/><path class="cls-102" d="M269.28,129.48c-.89-.08-1.31-.82-1.7-1.6a1.74,1.74,0,0,1,.05-2.16c.35-.39.87-.54,1.22-.11a8.73,8.73,0,0,1,1.33,3.19C270.28,129.13,269.84,129.46,269.28,129.48Z"/><path class="cls-96" d="M285.93,112.89c0,.24.17.9-.53,1.08s-1.12-.34-1.32-1a4.44,4.44,0,0,1-.41-2.68.94.94,0,0,1,.79-.73.84.84,0,0,1,.78.41A4.34,4.34,0,0,1,285.93,112.89Z"/><path class="cls-104" d="M303.68,110.71c0,.13.17.89-.71,1s-1-.53-1.19-1.17a5.76,5.76,0,0,1-.41-2.25,1,1,0,0,1,.8-1c.43-.09.71.21.93.55A4.56,4.56,0,0,1,303.68,110.71Z"/><path class="cls-96" d="M316.81,119.22c-.7,0-1.09-.41-.91-1a4.41,4.41,0,0,1,2-2.77.74.74,0,0,1,1.15.36C319.39,116.67,317.79,119.15,316.81,119.22Z"/><path class="cls-94" d="M326.6,139.18c-.55-.12-1.07-.51-.68-1.09a11.21,11.21,0,0,1,2.13-2.38c.58-.48,1.41.18,1.35,1A3.68,3.68,0,0,1,326.6,139.18Z"/><path class="cls-100" d="M314.85,93.51a4.62,4.62,0,0,1-1.74,2.5.78.78,0,0,1-1,0,.87.87,0,0,1-.33-1,8,8,0,0,1,1.63-2.45.74.74,0,0,1,1-.11A1.09,1.09,0,0,1,314.85,93.51Z"/><path class="cls-104" d="M299.49,111c0,.61,0,1.36-.78,1.41s-1-.5-1.12-1.2-.63-1.42-.38-2.22a1,1,0,0,1,.78-.74.81.81,0,0,1,.79.38A3.53,3.53,0,0,1,299.49,111Z"/><path class="cls-102" d="M304.1,97.08a.9.9,0,0,1-.78-1,4,4,0,0,1,1.84-2.8c.6-.38,1.06,0,1.19.62s-1.18,2.81-1.81,3.08A2.85,2.85,0,0,1,304.1,97.08Z"/><path class="cls-95" d="M296.28,89.44c.06,0,.34.09.44.26a6.31,6.31,0,0,1,.82,3.08c0,.63-.92,1-1.43.55a4.33,4.33,0,0,1-.74-3.5A.74.74,0,0,1,296.28,89.44Z"/><path class="cls-101" d="M308.09,119.35c0,.84-1.79,2.35-2.66,2.21-.69-.11-.94-.6-.6-1.18a5,5,0,0,1,2-1.92A.92.92,0,0,1,308.09,119.35Z"/><path class="cls-102" d="M238.16,147.29c0,.53-.25.9-.85.84a2.84,2.84,0,0,1-1.8-2.19c0-.68.46-1,1.06-.94C237.34,145,238.19,146.3,238.16,147.29Z"/><path class="cls-105" d="M318.63,128.56a2.82,2.82,0,0,0-.48-2.3C319.35,126.89,319.41,127.17,318.63,128.56Z"/><path class="cls-106" d="M248.19,112.66a.48.48,0,0,1,.46-.39c.21,0,.47.06.4.32a.73.73,0,0,1-.44.42C248.38,113.08,248.21,112.92,248.19,112.66Z"/><path class="cls-105" d="M318.23,130.94a1,1,0,0,1-.52.88A.89.89,0,0,1,318.23,130.94Z"/><path class="cls-105" d="M316.76,131.37a1,1,0,0,1,.5-.91A.89.89,0,0,1,316.76,131.37Z"/><path class="cls-105" d="M319.58,129a1,1,0,0,1-.46.93A1,1,0,0,1,319.58,129Z"/><path class="cls-105" d="M317.7,130a1,1,0,0,1,.48-.93A.9.9,0,0,1,317.7,130Z"/><path class="cls-105" d="M317.7,131.84l-.44.49Z"/><path class="cls-105" d="M316.27,131.83l.5-.47A.66.66,0,0,1,316.27,131.83Z"/><path class="cls-105" d="M318.68,130.46c-.15.16-.31.32-.46.49C318.37,130.78,318.53,130.62,318.68,130.46Z"/><path class="cls-105" d="M319.12,130l-.45.49Z"/><path class="cls-105" d="M317.27,130.45l.44-.49Z"/><path class="cls-105" d="M320.07,128.58l-.48.45Z"/><path class="cls-105" d="M318.18,129c.16-.16.31-.33.46-.49C318.49,128.71,318.34,128.88,318.18,129Z"/><path class="cls-105" d="M317.27,132.32l-.45.54A.69.69,0,0,1,317.27,132.32Z"/><path class="cls-107" d="M373.34,195.43a.7.7,0,0,1-.06.35c-.16,0-.2-.13-.1-.26A.83.83,0,0,1,373.34,195.43Z"/><path class="cls-1" d="M298.19,191.56A31.6,31.6,0,0,1,294.3,197c-.68.66-.05,1.08.07,1.61a5.22,5.22,0,0,1,.34,1,1.26,1.26,0,0,1-.88,1.4l-5.07,4.12c-.72.59-1.4,1.37-2.46,1-1.25-.47-.93-1.62-.88-2.53a1.28,1.28,0,0,0-1.21.13c-10.33,5.06-27.89.55-33.5-15.49A26.24,26.24,0,0,1,249.56,176c0-.23.19-.5.12-.68-.76-1.95.09-3.34,1.28-4.84a2.82,2.82,0,0,0,.46-3.45c-.47-.76.17-1.5,1.08-1.66,2.16-.37,3-1.81,3.22-3.8.09-.93.58-1.58,1.47-1.41,1.14.22,1.74-.47,2.47-1a25.81,25.81,0,0,1,40.45,14.36,20.59,20.59,0,0,1,.72,4.61c0,1.07.48,1.64,1.54,1.53a27.82,27.82,0,0,1,8.33.9c1.47.3,1.67.08,2.16-1.36a33.22,33.22,0,0,1,5.21-10.38,20.11,20.11,0,0,1,7.13-5.92,15,15,0,0,1,16.68,1.81,21.62,21.62,0,0,1,6,7.63c.44.88.66,1.88,1.78,2.3.63.24.67,1,.5,1.63-.45,1.82-.31,3.48,1.25,4.82a1.41,1.41,0,0,1,.1,1.93c-1,1.51-.74,3.13-.3,4.69a2.26,2.26,0,0,1-.21,2.39,3.73,3.73,0,0,0-.63,2,28.57,28.57,0,0,1-8,15.56c-7.25,7.07-17.19,6.78-24-.71-.68-.74-1.41-1.44-2.11-2.17-1.49-.68-1.79-2.17-2.29-3.48-.38-1-.69-2-1.17-2.95a29.19,29.19,0,0,1-1.32-5.48,17.44,17.44,0,0,0,.1-6.28c-2.8-2.21-6.11-2.29-9.44-2.25-2.2,0-2.16,1.79-2.4,3.3S299.77,190.66,298.19,191.56Z"/><path class="cls-3" d="M293.89,209.42l12.9,3.29a3.35,3.35,0,0,1,1.94,5.49,10.35,10.35,0,0,1-1.84,1.78,12.27,12.27,0,0,1-15.13-.19,14.41,14.41,0,0,1-4-5.41c-1.38-3.25-.22-5,3.37-5.29.23,0,.46,0,.7,0C292.52,209.27,293.31,208.77,293.89,209.42Z"/><path class="cls-3" d="M325.52,147.74a6.1,6.1,0,0,1,2.28.41A90.33,90.33,0,0,1,339,153.38a8,8,0,0,1,.78.51c.72.54,1.32,1.19.92,2.16a2.19,2.19,0,0,1-2.3,1.25,3.83,3.83,0,0,1-1.12-.31,22.88,22.88,0,0,0-13.52-.9,12.15,12.15,0,0,1-2.54.36c-2.37,0-3.55-1.77-2.64-3.93A8.25,8.25,0,0,1,325.52,147.74Z"/><path class="cls-3" d="M297,150.71a2.55,2.55,0,0,1-3.15,2.77,8.6,8.6,0,0,1-2.81-1.09,23.35,23.35,0,0,0-13.29-2.64,2.89,2.89,0,0,1-2.57-.75,1.52,1.52,0,0,1,.3-2.55,6.18,6.18,0,0,1,1.74-.65,77.42,77.42,0,0,1,11.69-2.1A7.66,7.66,0,0,1,297,150.71Z"/><path class="cls-108" d="M306.09,199.09c-.65-3-2.07-5.69-3-8.56-.2-.59-.45-1.17-.66-1.75-.26-.76-.15-1.44.66-1.74a1.41,1.41,0,0,1,1.8.69,4,4,0,0,1,.2.42c1.13,2.9,2.3,5.79,3.38,8.71.57,1.55.5,1.58-1.13,2.77A.93.93,0,0,1,306.09,199.09Z"/><path class="cls-109" d="M312.14,193.3c.42,1.58.85,3.16,1.27,4.74-.64,1.16-1.38,1.33-2.26.24-1.69-3.14-2.78-6.53-4.15-9.8a2.56,2.56,0,0,1-.13-.92,1.27,1.27,0,0,1,.92-1.42,1.2,1.2,0,0,1,1.51.76c.68,1.56,1.31,3.14,2,4.71C311.88,192,311.81,192.76,312.14,193.3Z"/><path class="cls-97" d="M306.09,199.09l1.23.54q1.55,3.26,3.08,6.52a7.6,7.6,0,0,1,.55,1.28,1.52,1.52,0,0,1-.87,1.93,1.48,1.48,0,0,1-2.05-.54,42.29,42.29,0,0,1-3.46-7.86C304.23,199.86,305,199.24,306.09,199.09Z"/><path class="cls-110" d="M292.5,208.51a1.92,1.92,0,0,1-.15-2.86,11.35,11.35,0,0,0,2.06-4.07,3.64,3.64,0,0,1,.85-2.41c.65-.57,1.29-1.19,2.24-.59a1.76,1.76,0,0,1,.61,2.28c-1,2.82-1.5,5.91-4.26,7.76A1,1,0,0,1,292.5,208.51Z"/><path class="cls-92" d="M315.85,205.71l.12.44c.45,1.59.24,2.36-.74,2.73s-1.66,0-2.35-1.33c-.95-1.77-1.83-3.57-2.73-5.36a2.57,2.57,0,0,1,.1-3,2.11,2.11,0,0,1,3.06,1.14C314.23,202.07,315.44,203.7,315.85,205.71Z"/><path class="cls-111" d="M298.19,191.56l1.65-4c1,2.84,2.08,5.67,3.1,8.52a5.65,5.65,0,0,1,.32,1.35,1.3,1.3,0,0,1-.92,1.45,1.21,1.21,0,0,1-1.56-.65,11.23,11.23,0,0,1-.69-1.72A27.59,27.59,0,0,0,298.19,191.56Z"/><path class="cls-112" d="M315.85,205.71a26.8,26.8,0,0,1-2.93-5.12c-.58-1.23-1.33-1.81-2.67-1.43l.9-.88a2.29,2.29,0,0,0,2.26-.24c1.12,2.17,1.59,4.63,2.95,6.7A1.15,1.15,0,0,0,315.85,205.71Z"/><path class="cls-113" d="M312.14,193.3a3.22,3.22,0,0,1-.88-1.69c.75-1.64,0-3.4.42-5.06A39.15,39.15,0,0,1,312.14,193.3Z"/><path class="cls-114" d="M292.5,208.51l1.35.11c0,.26,0,.53,0,.8a2.91,2.91,0,0,1-2-.36Z"/><path class="cls-115" d="M295.26,199.17a4.51,4.51,0,0,1-.85,2.41l-.58-.57.55-1.27c.1-.23.14-.51.44-.58A1.3,1.3,0,0,1,295.26,199.17Z"/><path class="cls-110" d="M294.82,199.16c-.15.19-.3.38-.44.58,0-.38,0-.76,0-1.14Z"/><path class="cls-82" d="M346.76,277.73a.85.85,0,0,1,.37.93A1,1,0,0,1,346.76,277.73Z"/><path class="cls-82" d="M346.69,279.58a.44.44,0,0,1-.3-.49Z"/><path class="cls-34" d="M345,273.52c.1.18.21.36.31.55Z"/><path class="cls-116" d="M313,375.8a.87.87,0,0,1,.06-.32c1-.25,1.74-1,2.79-1V375a5.73,5.73,0,0,1-2.33.9Z"/><path class="cls-117" d="M233.09,340.8a28.74,28.74,0,0,1,2.31,6.56c-1.59-1.76-1.74-4.16-2.76-6.18Z"/><path class="cls-117" d="M235.38,347.34a.69.69,0,0,1,.39.83C235.4,348,235.4,347.66,235.38,347.34Z"/><path class="cls-72" d="M235.3,339.34a1.86,1.86,0,0,1,1.49-.38C236.4,339.5,235.85,339.42,235.3,339.34Z"/><path class="cls-72" d="M237.14,338.87l.57-.43A.58.58,0,0,1,237.14,338.87Z"/><path class="cls-118" d="M352.36,284.7l-.09,1a1.76,1.76,0,0,1-.38-1.46,2.16,2.16,0,0,1,.44,0Z"/><path class="cls-87" d="M362.13,179.57a1.69,1.69,0,0,1,.45,0C362.42,180,362.27,179.77,362.13,179.57Z"/><path class="cls-6" d="M114.35,68.17a15.62,15.62,0,0,1-8.46-5.25c-2.33-2.87-2.52-6.75.38-9.41s6.53-2,8,1.52a12.78,12.78,0,0,1,1,7.92C115,64.6,115.24,66.37,114.35,68.17Z"/><path class="cls-6" d="M192.36,100.28c.49-5.18,1.44-11.43,5.06-16.94a13.47,13.47,0,0,1,2.69-2.89,4.3,4.3,0,0,1,5.76.16,9.73,9.73,0,0,1,2.89,5,25.28,25.28,0,0,1,.63,10.11,44.79,44.79,0,0,1-2.08,9.27,16.29,16.29,0,0,1-4.23,6.61,5.47,5.47,0,0,1-8.88-1.3C193.16,108.5,192.35,104.64,192.36,100.28Z"/><path class="cls-8" d="M274.21,164.12c6.76-.2,12.24,2.35,15.79,8.23,3.85,6.37,3.77,12.94-.53,19.08s-10.92,7.37-18,6.85c0-.78.5-.88.87-1.11a13.51,13.51,0,0,0,5.66-7.45,42.42,42.42,0,0,0,2.16-10,17.1,17.1,0,0,0-4.39-13.33c-.56-.64-1.22-1.19-1.83-1.77Z"/><path class="cls-8" d="M329.91,171.14c5.38-.39,9.12,2.19,11.58,6.72a20.07,20.07,0,0,1,.94,17.56,19.86,19.86,0,0,1-4.29,6.87,11.18,11.18,0,0,1-9.74,3.4,4.72,4.72,0,0,1-.89-.25c-.28-.1-.54-.24-.76-.33a.52.52,0,0,1,.31-.64,11.08,11.08,0,0,0,7.35-7.57,28.55,28.55,0,0,0,.19-18.11c-1-2.95-2.62-5.46-5.65-6.75C328.7,171.13,329.67,171.53,329.91,171.14Z"/><path class="cls-119" d="M295.24,186.49a25.28,25.28,0,0,0,.11-9.26,20.47,20.47,0,0,0-30.53-13.41,7,7,0,0,0-.79.5,1.21,1.21,0,0,1-2-.17c-.41-.55-1.13-.86-1.28-1.77A21.34,21.34,0,0,1,276,157.26a22.36,22.36,0,0,1,21.32,18.57,19.52,19.52,0,0,1-1.1,11.66c-.39.19-.24,1.15-.82.83C294.68,187.92,295,187.14,295.24,186.49Z"/><path class="cls-16" d="M315.32,180.37a21.71,21.71,0,0,1,8.15-13A13.73,13.73,0,0,1,342,168.68a19.55,19.55,0,0,1,3.59,4.87c1.14,2.17,1.13,2.18-1.33,3.35-.67-.36-.82-1.1-1.19-1.67a19.68,19.68,0,0,0-2.75-3.48,12.34,12.34,0,0,0-16-1.54c-4.09,2.73-6.39,6.72-7.87,11.28-.19.59-.37,1.19-.55,1.78-.56.71.06,1.64-.44,2.36h0c-1.36-.92-.62-2.17-.52-3.32h0C315.45,181.76,314.93,181,315.32,180.37Z"/><path class="cls-120" d="M254.51,188.9c-2-3.79-2.28-7.85-1.84-12,.05-.54-.11-1.38.89-1.3a1.69,1.69,0,0,1,1.67,1.78,28.31,28.31,0,0,0-.36,4.41,32.31,32.31,0,0,0,.71,5.54c.31.46-.14,1.17.51,1.51l0,0c.12.34.06.76.43,1v0c.19.31.12.74.46,1v0c.23.28.12.75.52.93v0c.18.31.05.79.53.92l0,0c0,.29.19.42.39.57h0c.3.63.24,1.06-.6,1.07h0c0-.3-.21-.43-.45-.54l0,0a1.12,1.12,0,0,0-.43-.53h0c-.26-.24-.14-.74-.58-.87l0,0c0-.27-.21-.41-.37-.57h0c-.27-.24-.16-.71-.53-.9v0c-.19-.31-.1-.76-.5-.95l0,0C254.81,189.56,254.87,189.13,254.51,188.9Z"/><path class="cls-121" d="M338.73,205.62a23.1,23.1,0,0,0,7.22-13.8c0-.23.1-.45.14-.68.17-.8.77-.93,1.43-.87.84.07.66.75.55,1.24-1.22,5.78-3.48,11-8.35,14.68a3.14,3.14,0,0,1-.5.38l-.06,0c-.17.33-.65.21-.81.55h0c-.55.23-1,.28-1-.53h0l.49-.37.07-.05C338.1,205.89,338.58,206,338.73,205.62Z"/><path class="cls-122" d="M258.47,164.91a4.82,4.82,0,0,1,2,2.14c0,.56-1.36,1.88-1.86,1.79s-2.06-1.56-2-2C256.75,166.22,258,164.88,258.47,164.91Z"/><path class="cls-123" d="M314.89,182.31c.35,1.08-.47,2.34.52,3.32l.06,6.84c0,.7.68,1.56-.48,2l-.14-.79c-.35-.61.07-1.37-.36-2A21,21,0,0,1,314.89,182.31Z"/><path class="cls-124" d="M295.24,186.49c0,.22.05.43.07.64s-.06.76.06.81c.39.18.52-.4.87-.45A10.45,10.45,0,0,1,294,192.2c-.39.15-.3.63-.58.85l0,0a5.08,5.08,0,0,0-.41.51h0c-.2.13-.4.26-.43.53v0c-.53,0-.78-.18-.63-.73a.34.34,0,0,1,.2-.32,1.94,1.94,0,0,1,.34-.47h0a.82.82,0,0,0,.4-.63.27.27,0,0,1,.15-.3,1.62,1.62,0,0,0,.34-.58C294,189.56,294.61,188,295.24,186.49Z"/><path class="cls-125" d="M347.39,178.64a3.58,3.58,0,0,1,.7,2.07c.1.67-.36,1-.9,1.13s-.79.54-1.27.23a2.26,2.26,0,0,1-.2-2.68,2.84,2.84,0,0,1,.56-.4A1.45,1.45,0,0,1,347.39,178.64Z"/><path class="cls-126" d="M257,172.08c-.17.52-.18,1.24-1,1.3s-2.19-.93-2.07-1.44c.16-.72.24-1.59,1.1-1.85C255.65,169.9,257,171.3,257,172.08Z"/><path class="cls-127" d="M266.88,200a.31.31,0,0,1,.31.1c0,.9-.5.65-1,.48a.55.55,0,0,1-.42-.15,2.55,2.55,0,0,0-.57-.29,12.25,12.25,0,0,1-4.46-2.9,1.22,1.22,0,0,1,.92-.57l4.6,3A1.4,1.4,0,0,0,266.88,200Z"/><path class="cls-128" d="M323.4,206.61a14.19,14.19,0,0,0,8.82,1.93c0,1.05-.83.57-1.32.66-.79.13-1.63-.21-2.4.23a10.31,10.31,0,0,1-5.62-2.35C322.82,206.67,322.92,206.43,323.4,206.61Z"/><path class="cls-129" d="M280.32,201.09a33,33,0,0,0,6.51-2.9.72.72,0,0,1,.64.62,14,14,0,0,1-6.08,2.76C280.92,201.66,280.34,202,280.32,201.09Z"/><path class="cls-130" d="M323.4,206.61l-.52.47a14.42,14.42,0,0,1-5.13-5.58c.15-.22.19-.53.52-.6A25.82,25.82,0,0,0,323.4,206.61Z"/><path class="cls-131" d="M261.67,196.7a.93.93,0,0,1-.92.57,9.29,9.29,0,0,1-3-3.13,1.3,1.3,0,0,0,.6-1.08Z"/><path class="cls-132" d="M348.59,185.48c.12,1.21-.12,1.88-1.26,1.94-.81,0-1.1-.34-1.11-1.07a1.86,1.86,0,0,1,1.7-1.79C348.73,184.57,348.55,185.24,348.59,185.48Z"/><path class="cls-133" d="M280.32,201.09c.25.39.67.41,1.07.48a9.29,9.29,0,0,1-4.38.83c-1.32-.44-2.68-.06-4-.24a.38.38,0,0,1-.2-.59A36.39,36.39,0,0,0,280.32,201.09Z"/><path class="cls-134" d="M291.91,193.4l.63.73a9.45,9.45,0,0,1-3.21,3.26c-.51.12-.7-.1-.63-.6Z"/><path class="cls-135" d="M315,194.45c.63-.54.25-1.33.48-2l1.44,5.59c.17.54-.05.72-.58.63A12.58,12.58,0,0,1,315,194.45Z"/><path class="cls-136" d="M337.34,206.63c.21.41.62.45,1,.53a8,8,0,0,1-4.12,1.9c-.57,0-1.36.63-1.51-.54a.35.35,0,0,1,.34-.06c.46-.33,1.13,0,1.53-.46Z"/><path class="cls-137" d="M272.8,201.57c0,.14,0,.28,0,.43.16.08.21.17.16.25s-.11.13-.16.13a8.2,8.2,0,0,1-3.9-.78c.19-.52.75-.31,1.08-.55Z"/><path class="cls-138" d="M316.33,198.69l.58-.63a13,13,0,0,1,1.36,2.84l-.52.6A6.81,6.81,0,0,1,316.33,198.69Z"/><path class="cls-139" d="M270,201.05c-.24.42-.68.45-1.08.55a5.45,5.45,0,0,1-2.72-1c.37-.06.77-.09,1-.48Z"/><path class="cls-140" d="M332.71,208.52c.36.6,1,.4,1.51.54-1.86.84-3.79.6-5.72.37.5-.64,1.21-.39,1.85-.44s1.35.16,1.87-.45Z"/><path class="cls-141" d="M288.7,196.79l.63.6a4.29,4.29,0,0,1-1.86,1.42l-.64-.62Z"/><path class="cls-142" d="M272.82,202.38V202c1.4.15,2.86-.39,4.19.4A14.7,14.7,0,0,1,272.82,202.38Z"/><path class="cls-143" d="M329.91,171.14c-.25.37-.91.31-1,.9-.37.05-.83.16-1-.24s.31-.58.64-.67A2,2,0,0,1,329.91,171.14Z"/><path class="cls-123" d="M315.41,185.63c-.08-.83-.32-1.69.44-2.36A3.66,3.66,0,0,1,315.41,185.63Z"/><path class="cls-123" d="M315.32,180.37c.11.7.28,1.43-.43,1.95A2.31,2.31,0,0,1,315.32,180.37Z"/><path class="cls-144" d="M314.49,191.68c.62.57.44,1.29.36,2A2.69,2.69,0,0,1,314.49,191.68Z"/><path class="cls-131" d="M256.09,188.82c-.73-.31-.58-.92-.51-1.51A2,2,0,0,1,256.09,188.82Z"/><path class="cls-140" d="M334.58,208c-.38.6-.95.54-1.53.46A2.21,2.21,0,0,1,334.58,208Z"/><path class="cls-131" d="M255,189.86c.48.15.56.51.5.95A1,1,0,0,1,255,189.86Z"/><path class="cls-131" d="M258,192.53c-.53-.1-.6-.47-.53-.92A1,1,0,0,1,258,192.53Z"/><path class="cls-131" d="M257,190.73c-.45-.18-.52-.54-.46-1A1,1,0,0,1,257,190.73Z"/><path class="cls-131" d="M257.46,191.64c-.47-.14-.56-.5-.52-.93A1,1,0,0,1,257.46,191.64Z"/><path class="cls-136" d="M338.35,207.16a.73.73,0,0,1,.81-.55A.8.8,0,0,1,338.35,207.16Z"/><path class="cls-131" d="M255.44,190.78a.79.79,0,0,1,.53.9A.94.94,0,0,1,255.44,190.78Z"/><path class="cls-136" d="M338.73,205.62a.71.71,0,0,1-.81.58A.94.94,0,0,1,338.73,205.62Z"/><path class="cls-134" d="M293.39,193.05a.79.79,0,0,1,.58-.85A1,1,0,0,1,293.39,193.05Z"/><path class="cls-131" d="M256.32,192.22c.5.09.59.45.58.87A.91.91,0,0,1,256.32,192.22Z"/><path class="cls-131" d="M254.51,188.9a.78.78,0,0,1,.46,1A1,1,0,0,1,254.51,188.9Z"/><path class="cls-131" d="M256.5,189.78c-.47-.18-.53-.55-.43-1A1,1,0,0,1,256.5,189.78Z"/><path class="cls-136" d="M337.85,206.25a.44.44,0,0,1-.49.37A.42.42,0,0,1,337.85,206.25Z"/><path class="cls-131" d="M257.3,193.6a.51.51,0,0,1,.45.54A.54.54,0,0,1,257.3,193.6Z"/><path class="cls-134" d="M292.45,192.61a.48.48,0,0,1-.34.47A.44.44,0,0,1,292.45,192.61Z"/><path class="cls-134" d="M292.85,192a.65.65,0,0,1-.4.63A.67.67,0,0,1,292.85,192Z"/><path class="cls-134" d="M293,193.59a.55.55,0,0,1,.41-.51A.55.55,0,0,1,293,193.59Z"/><path class="cls-136" d="M339.22,206.57a.48.48,0,0,1,.5-.38A.45.45,0,0,1,339.22,206.57Z"/><path class="cls-139" d="M265.21,200.17a.52.52,0,0,1,.57.29A.58.58,0,0,1,265.21,200.17Z"/><path class="cls-131" d="M256,191.69a.54.54,0,0,1,.37.57A.5.5,0,0,1,256,191.69Z"/><path class="cls-134" d="M293.34,191.1a.59.59,0,0,1-.34.58A.59.59,0,0,1,293.34,191.1Z"/><path class="cls-134" d="M292.54,194.11a.56.56,0,0,1,.43-.53A.54.54,0,0,1,292.54,194.11Z"/><path class="cls-131" d="M258.34,193.07a.52.52,0,0,1-.39-.57A.53.53,0,0,1,258.34,193.07Z"/><path class="cls-131" d="M256.9,193.1a.58.58,0,0,1,.43.53A.51.51,0,0,1,256.9,193.1Z"/><path class="cls-139" d="M266.88,200a.63.63,0,0,1-.61-.33A.67.67,0,0,1,266.88,200Z"/><path class="cls-145" d="M291.22,212.85a2.41,2.41,0,0,1,1.59,0c3.48.77,6.95,1.53,10.42,2.33.79.19,1.9.3,1.91,1.34,0,.79-.95,1.14-1.63,1.48A8.54,8.54,0,0,1,291.22,212.85Z"/></g></g></svg>