<svg id="Calque_1" data-name="Calque 1" xmlns="http://www.w3.org/2000/svg" viewBox="0 0 92 122"><defs><style>.cls-1{fill:#faa028;}</style></defs><path class="cls-1" d="M87.12,44c-7.77,2-15,5.43-22.23,8.9C58.2,56.12,51.6,59.55,46.48,65.07a40.93,40.93,0,0,0-9.83,18.19c-1.73,7.27-1.07,15.58,4.48,21.11,2.6,2.6,6.32,4.47,10.07,4.17,3.95-.31,7.34-2.49,10.32-5,5.54-4.6,9-11.62,7-18.85s-8.75-11.61-16-12.36C45,71.6,37.19,74.74,30.83,78.5,18.2,86,9.05,98.13,3.31,111.45c-.77,1.78-1.5,3.58-2.17,5.4a3,3,0,0,0,2.09,3.69,3.06,3.06,0,0,0,3.69-2.1c4.42-11.85,11.29-23,21.29-30.91a45.42,45.42,0,0,1,16.08-8.38c5.45-1.48,12-1.4,16.13,3,3.74,3.94,3.32,9.72.19,13.85a20.85,20.85,0,0,1-6.67,5.61,6.63,6.63,0,0,1-7.47-.49c-4.57-3.3-5.35-9.8-4.29-15.11A34.56,34.56,0,0,1,49.67,70.5c4.69-5.5,10.81-8.83,17.22-11.94C74,55.14,81.06,51.7,88.72,49.78c3.74-1,2.15-6.73-1.6-5.79Z"/><path class="cls-1" d="M14.22,62.43c-.74-7.88-.32-16.18,4.32-22.89,1.85-2.68,4.69-5.32,7.92-6.15a5.42,5.42,0,0,1,2.68,0,7.54,7.54,0,0,1,1.32.43A9.1,9.1,0,0,1,33.32,36a6.4,6.4,0,0,1,1.59,3.85c0,1.31-1.2,2-2.46,2.66a10.89,10.89,0,0,1-9.22.14,5,5,0,0,1-3.06-3.25A20.88,20.88,0,0,1,19.34,34a28.29,28.29,0,0,1,1.88-11.22A27.15,27.15,0,0,1,37.83,7.17a3.06,3.06,0,0,0,2.09-3.69,3,3,0,0,0-3.69-2.09,33.24,33.24,0,0,0-20,17.93A33.69,33.69,0,0,0,13.34,34c.19,5.12,1.26,10.73,6.11,13.43a17.11,17.11,0,0,0,14.07,1.1,13,13,0,0,0,6.1-4.34,8.46,8.46,0,0,0,.78-7.4,13.94,13.94,0,0,0-9.16-9.12c-5-1.5-9.79.75-13.55,3.92C8.82,39.1,7.2,51.55,8.22,62.43a3.08,3.08,0,0,0,3,3,3,3,0,0,0,3-3Z"/></svg>